<!DOCTYPE svg PUBLIC "-//W3C//DTD SVG 1.1//EN" "http://www.w3.org/Graphics/SVG/1.1/DTD/svg11.dtd">
<svg xmlns="http://www.w3.org/2000/svg" xmlns:xlink="http://www.w3.org/1999/xlink" xmlns:jfreesvg="http://www.jfree.org/jfreesvg/svg" width="609" height="526" text-rendering="auto" shape-rendering="auto">
<defs></defs>
<rect x="0" y="0" width="1533" height="670" style="fill: rgb(255,255,255); fill-opacity: 1.0" transform="matrix(1,0,0,1,-0,-60)" /><rect x="0" y="0" width="1533" height="670" style="fill: rgb(255,255,255); fill-opacity: 1.0" transform="matrix(1,0,0,1,-0,-60)" /><g style="stroke-width: 1.0;stroke: rgb(128,128,128);stroke-opacity: 1.0;stroke-linecap: round;stroke-linejoin: round;; fill: none" transform="matrix(1,0,0,1,-0,-60)" ><path d="M 28.57 192.21 L 28.57 286.37 L 37.14 286.37"/></g><g style="stroke-width: 1.0;stroke: rgb(128,128,128);stroke-opacity: 1.0;stroke-linecap: round;stroke-linejoin: round;; fill: none" transform="matrix(1,0,0,1,-0,-60)" ><path d="M 37.14 286.37 L 37.14 382.23 L 45.71 382.23"/></g><g style="stroke-width: 1.0;stroke: rgb(128,128,128);stroke-opacity: 1.0;stroke-linecap: round;stroke-linejoin: round;; fill: none" transform="matrix(1,0,0,1,-0,-60)" ><path d="M 45.71 382.23 L 45.71 413.8 L 54.29 413.8"/></g><g style="stroke-width: 1.0;stroke: rgb(128,128,128);stroke-opacity: 1.0;stroke-linecap: round;stroke-linejoin: round;; fill: none" transform="matrix(1,0,0,1,-0,-60)" ><path d="M 54.29 413.8 L 54.29 440.87 L 62.86 440.87"/></g><g style="stroke-width: 1.0;stroke: rgb(128,128,128);stroke-opacity: 1.0;stroke-linecap: round;stroke-linejoin: round;; fill: none" transform="matrix(1,0,0,1,-0,-60)" ><path d="M 62.86 440.87 L 62.86 458.91 L 80 458.91"/></g><g style="stroke-width: 1.0;stroke: rgb(128,128,128);stroke-opacity: 1.0;stroke-linecap: round;stroke-linejoin: round;; fill: none" transform="matrix(1,0,0,1,-0,-60)" ><path d="M 62.86 440.87 L 62.86 422.83 L 80 422.83"/></g><g style="stroke-width: 1.0;stroke: rgb(128,128,128);stroke-opacity: 1.0;stroke-linecap: round;stroke-linejoin: round;; fill: none" transform="matrix(1,0,0,1,-0,-60)" ><path d="M 54.29 413.8 L 54.29 386.74 L 80 386.74"/></g><g style="stroke-width: 1.0;stroke: rgb(128,128,128);stroke-opacity: 1.0;stroke-linecap: round;stroke-linejoin: round;; fill: none" transform="matrix(1,0,0,1,-0,-60)" ><path d="M 45.71 382.23 L 45.71 350.65 L 80 350.65"/></g><g style="stroke-width: 1.0;stroke: rgb(128,128,128);stroke-opacity: 1.0;stroke-linecap: round;stroke-linejoin: round;; fill: none" transform="matrix(1,0,0,1,-0,-60)" ><path d="M 37.14 286.37 L 37.14 190.52 L 45.71 190.52"/></g><g style="stroke-width: 1.0;stroke: rgb(128,128,128);stroke-opacity: 1.0;stroke-linecap: round;stroke-linejoin: round;; fill: none" transform="matrix(1,0,0,1,-0,-60)" ><path d="M 45.71 190.52 L 45.71 246.9 L 54.29 246.9"/></g><g style="stroke-width: 1.0;stroke: rgb(128,128,128);stroke-opacity: 1.0;stroke-linecap: round;stroke-linejoin: round;; fill: none" transform="matrix(1,0,0,1,-0,-60)" ><path d="M 54.29 246.9 L 54.29 296.52 L 62.86 296.52"/></g><g style="stroke-width: 1.0;stroke: rgb(128,128,128);stroke-opacity: 1.0;stroke-linecap: round;stroke-linejoin: round;; fill: none" transform="matrix(1,0,0,1,-0,-60)" ><path d="M 62.86 296.52 L 62.86 314.57 L 80 314.57"/></g><g style="stroke-width: 1.0;stroke: rgb(128,128,128);stroke-opacity: 1.0;stroke-linecap: round;stroke-linejoin: round;; fill: none" transform="matrix(1,0,0,1,-0,-60)" ><path d="M 62.86 296.52 L 62.86 278.48 L 80 278.48"/></g><g style="stroke-width: 1.0;stroke: rgb(128,128,128);stroke-opacity: 1.0;stroke-linecap: round;stroke-linejoin: round;; fill: none" transform="matrix(1,0,0,1,-0,-60)" ><path d="M 54.29 246.9 L 54.29 197.28 L 62.86 197.28"/></g><g style="stroke-width: 1.0;stroke: rgb(128,128,128);stroke-opacity: 1.0;stroke-linecap: round;stroke-linejoin: round;; fill: none" transform="matrix(1,0,0,1,-0,-60)" ><path d="M 62.86 197.28 L 62.86 224.35 L 71.43 224.35"/></g><g style="stroke-width: 1.0;stroke: rgb(128,128,128);stroke-opacity: 1.0;stroke-linecap: round;stroke-linejoin: round;; fill: none" transform="matrix(1,0,0,1,-0,-60)" ><path d="M 71.43 224.35 L 71.43 242.39 L 80 242.39"/></g><g style="stroke-width: 1.0;stroke: rgb(128,128,128);stroke-opacity: 1.0;stroke-linecap: round;stroke-linejoin: round;; fill: none" transform="matrix(1,0,0,1,-0,-60)" ><path d="M 71.43 224.35 L 71.43 206.3 L 80 206.3"/></g><g style="stroke-width: 1.0;stroke: rgb(128,128,128);stroke-opacity: 1.0;stroke-linecap: round;stroke-linejoin: round;; fill: none" transform="matrix(1,0,0,1,-0,-60)" ><path d="M 62.86 197.28 L 62.86 170.22 L 80 170.22"/></g><g style="stroke-width: 1.0;stroke: rgb(128,128,128);stroke-opacity: 1.0;stroke-linecap: round;stroke-linejoin: round;; fill: none" transform="matrix(1,0,0,1,-0,-60)" ><path d="M 45.71 190.52 L 45.71 134.13 L 80 134.13"/></g><g style="stroke-width: 1.0;stroke: rgb(128,128,128);stroke-opacity: 1.0;stroke-linecap: round;stroke-linejoin: round;; fill: none" transform="matrix(1,0,0,1,-0,-60)" ><path d="M 28.57 192.21 L 28.57 98.04 L 80 98.04"/></g><g style="fill: rgb(128,128,128); fill-opacity: 1.0; stroke: none" transform="matrix(1,0,0,1,-0,-60)" ><path d="M 80 85 L 80 110.09 C 80 112.85 82.24 115.09 85 115.09 L 107.45 115.09 C 110.22 115.09 112.45 112.85 112.45 110.09 L 112.45 85 C 112.45 82.24 110.22 80 107.45 80 L 85 80 C 82.24 80 80 82.24 80 85 Z "/></g><g style="stroke-width: 1.0;stroke: rgb(255,255,255);stroke-opacity: 1.0;stroke-linecap: round;stroke-linejoin: round;; fill: none" transform="matrix(1,0,0,1,-0,-60)" ><path d="M 80 85 L 80 110.09 C 80 112.85 82.24 115.09 85 115.09 L 107.45 115.09 C 110.22 115.09 112.45 112.85 112.45 110.09 L 112.45 85 C 112.45 82.24 110.22 80 107.45 80 L 85 80 C 82.24 80 80 82.24 80 85 Z "/></g><g style="fill: rgb(128,128,128); fill-opacity: 1.0; stroke: none" transform="matrix(1,0,0,1,-0,-60)" ><path d="M 113.45 85 L 113.45 110.09 C 113.45 112.85 115.69 115.09 118.45 115.09 L 140.91 115.09 C 143.67 115.09 145.91 112.85 145.91 110.09 L 145.91 85 C 145.91 82.24 143.67 80 140.91 80 L 118.45 80 C 115.69 80 113.45 82.24 113.45 85 Z "/></g><g style="stroke-width: 1.0;stroke: rgb(255,255,255);stroke-opacity: 1.0;stroke-linecap: round;stroke-linejoin: round;; fill: none" transform="matrix(1,0,0,1,-0,-60)" ><path d="M 113.45 85 L 113.45 110.09 C 113.45 112.85 115.69 115.09 118.45 115.09 L 140.91 115.09 C 143.67 115.09 145.91 112.85 145.91 110.09 L 145.91 85 C 145.91 82.24 143.67 80 140.91 80 L 118.45 80 C 115.69 80 113.45 82.24 113.45 85 Z "/></g><g style="fill: rgb(189,210,224); fill-opacity: 1.0; stroke: none" transform="matrix(1,0,0,1,-0,-60)" ><path d="M 146.91 85 L 146.91 110.09 C 146.91 112.85 149.15 115.09 151.91 115.09 L 174.36 115.09 C 177.13 115.09 179.36 112.85 179.36 110.09 L 179.36 85 C 179.36 82.24 177.13 80 174.36 80 L 151.91 80 C 149.15 80 146.91 82.24 146.91 85 Z "/></g><g style="stroke-width: 1.0;stroke: rgb(255,255,255);stroke-opacity: 1.0;stroke-linecap: round;stroke-linejoin: round;; fill: none" transform="matrix(1,0,0,1,-0,-60)" ><path d="M 146.91 85 L 146.91 110.09 C 146.91 112.85 149.15 115.09 151.91 115.09 L 174.36 115.09 C 177.13 115.09 179.36 112.85 179.36 110.09 L 179.36 85 C 179.36 82.24 177.13 80 174.36 80 L 151.91 80 C 149.15 80 146.91 82.24 146.91 85 Z "/></g><g style="fill: rgb(230,96,97); fill-opacity: 1.0; stroke: none" transform="matrix(1,0,0,1,-0,-60)" ><path d="M 180.36 85 L 180.36 110.09 C 180.36 112.85 182.6 115.09 185.36 115.09 L 207.82 115.09 C 210.58 115.09 212.82 112.85 212.82 110.09 L 212.82 85 C 212.82 82.24 210.58 80 207.82 80 L 185.36 80 C 182.6 80 180.36 82.24 180.36 85 Z "/></g><g style="stroke-width: 1.0;stroke: rgb(255,255,255);stroke-opacity: 1.0;stroke-linecap: round;stroke-linejoin: round;; fill: none" transform="matrix(1,0,0,1,-0,-60)" ><path d="M 180.36 85 L 180.36 110.09 C 180.36 112.85 182.6 115.09 185.36 115.09 L 207.82 115.09 C 210.58 115.09 212.82 112.85 212.82 110.09 L 212.82 85 C 212.82 82.24 210.58 80 207.82 80 L 185.36 80 C 182.6 80 180.36 82.24 180.36 85 Z "/></g><g style="fill: rgb(31,120,180); fill-opacity: 1.0; stroke: none" transform="matrix(1,0,0,1,-0,-60)" ><path d="M 213.82 85 L 213.82 110.09 C 213.82 112.85 216.06 115.09 218.82 115.09 L 241.27 115.09 C 244.03 115.09 246.27 112.85 246.27 110.09 L 246.27 85 C 246.27 82.24 244.03 80 241.27 80 L 218.82 80 C 216.06 80 213.82 82.24 213.82 85 Z "/></g><g style="stroke-width: 1.0;stroke: rgb(255,255,255);stroke-opacity: 1.0;stroke-linecap: round;stroke-linejoin: round;; fill: none" transform="matrix(1,0,0,1,-0,-60)" ><path d="M 213.82 85 L 213.82 110.09 C 213.82 112.85 216.06 115.09 218.82 115.09 L 241.27 115.09 C 244.03 115.09 246.27 112.85 246.27 110.09 L 246.27 85 C 246.27 82.24 244.03 80 241.27 80 L 218.82 80 C 216.06 80 213.82 82.24 213.82 85 Z "/></g><g style="fill: rgb(128,128,128); fill-opacity: 1.0; stroke: none" transform="matrix(1,0,0,1,-0,-60)" ><path d="M 80 121.09 L 80 146.17 C 80 148.94 82.24 151.17 85 151.17 L 107.45 151.17 C 110.22 151.17 112.45 148.94 112.45 146.17 L 112.45 121.09 C 112.45 118.33 110.22 116.09 107.45 116.09 L 85 116.09 C 82.24 116.09 80 118.33 80 121.09 Z "/></g><g style="stroke-width: 1.0;stroke: rgb(255,255,255);stroke-opacity: 1.0;stroke-linecap: round;stroke-linejoin: round;; fill: none" transform="matrix(1,0,0,1,-0,-60)" ><path d="M 80 121.09 L 80 146.17 C 80 148.94 82.24 151.17 85 151.17 L 107.45 151.17 C 110.22 151.17 112.45 148.94 112.45 146.17 L 112.45 121.09 C 112.45 118.33 110.22 116.09 107.45 116.09 L 85 116.09 C 82.24 116.09 80 118.33 80 121.09 Z "/></g><g style="fill: rgb(128,128,128); fill-opacity: 1.0; stroke: none" transform="matrix(1,0,0,1,-0,-60)" ><path d="M 113.45 121.09 L 113.45 146.17 C 113.45 148.94 115.69 151.17 118.45 151.17 L 140.91 151.17 C 143.67 151.17 145.91 148.94 145.91 146.17 L 145.91 121.09 C 145.91 118.33 143.67 116.09 140.91 116.09 L 118.45 116.09 C 115.69 116.09 113.45 118.33 113.45 121.09 Z "/></g><g style="stroke-width: 1.0;stroke: rgb(255,255,255);stroke-opacity: 1.0;stroke-linecap: round;stroke-linejoin: round;; fill: none" transform="matrix(1,0,0,1,-0,-60)" ><path d="M 113.45 121.09 L 113.45 146.17 C 113.45 148.94 115.69 151.17 118.45 151.17 L 140.91 151.17 C 143.67 151.17 145.91 148.94 145.91 146.17 L 145.91 121.09 C 145.91 118.33 143.67 116.09 140.91 116.09 L 118.45 116.09 C 115.69 116.09 113.45 118.33 113.45 121.09 Z "/></g><g style="fill: rgb(227,26,28); fill-opacity: 1.0; stroke: none" transform="matrix(1,0,0,1,-0,-60)" ><path d="M 146.91 121.09 L 146.91 146.17 C 146.91 148.94 149.15 151.17 151.91 151.17 L 174.36 151.17 C 177.13 151.17 179.36 148.94 179.36 146.17 L 179.36 121.09 C 179.36 118.33 177.13 116.09 174.36 116.09 L 151.91 116.09 C 149.15 116.09 146.91 118.33 146.91 121.09 Z "/></g><g style="stroke-width: 1.0;stroke: rgb(255,255,255);stroke-opacity: 1.0;stroke-linecap: round;stroke-linejoin: round;; fill: none" transform="matrix(1,0,0,1,-0,-60)" ><path d="M 146.91 121.09 L 146.91 146.17 C 146.91 148.94 149.15 151.17 151.91 151.17 L 174.36 151.17 C 177.13 151.17 179.36 148.94 179.36 146.17 L 179.36 121.09 C 179.36 118.33 177.13 116.09 174.36 116.09 L 151.91 116.09 C 149.15 116.09 146.91 118.33 146.91 121.09 Z "/></g><g style="fill: rgb(230,96,97); fill-opacity: 1.0; stroke: none" transform="matrix(1,0,0,1,-0,-60)" ><path d="M 180.36 121.09 L 180.36 146.17 C 180.36 148.94 182.6 151.17 185.36 151.17 L 207.82 151.17 C 210.58 151.17 212.82 148.94 212.82 146.17 L 212.82 121.09 C 212.82 118.33 210.58 116.09 207.82 116.09 L 185.36 116.09 C 182.6 116.09 180.36 118.33 180.36 121.09 Z "/></g><g style="stroke-width: 1.0;stroke: rgb(255,255,255);stroke-opacity: 1.0;stroke-linecap: round;stroke-linejoin: round;; fill: none" transform="matrix(1,0,0,1,-0,-60)" ><path d="M 180.36 121.09 L 180.36 146.17 C 180.36 148.94 182.6 151.17 185.36 151.17 L 207.82 151.17 C 210.58 151.17 212.82 148.94 212.82 146.17 L 212.82 121.09 C 212.82 118.33 210.58 116.09 207.82 116.09 L 185.36 116.09 C 182.6 116.09 180.36 118.33 180.36 121.09 Z "/></g><g style="fill: rgb(227,32,34); fill-opacity: 1.0; stroke: none" transform="matrix(1,0,0,1,-0,-60)" ><path d="M 213.82 121.09 L 213.82 146.17 C 213.82 148.94 216.06 151.17 218.82 151.17 L 241.27 151.17 C 244.03 151.17 246.27 148.94 246.27 146.17 L 246.27 121.09 C 246.27 118.33 244.03 116.09 241.27 116.09 L 218.82 116.09 C 216.06 116.09 213.82 118.33 213.82 121.09 Z "/></g><g style="stroke-width: 1.0;stroke: rgb(255,255,255);stroke-opacity: 1.0;stroke-linecap: round;stroke-linejoin: round;; fill: none" transform="matrix(1,0,0,1,-0,-60)" ><path d="M 213.82 121.09 L 213.82 146.17 C 213.82 148.94 216.06 151.17 218.82 151.17 L 241.27 151.17 C 244.03 151.17 246.27 148.94 246.27 146.17 L 246.27 121.09 C 246.27 118.33 244.03 116.09 241.27 116.09 L 218.82 116.09 C 216.06 116.09 213.82 118.33 213.82 121.09 Z "/></g><g style="fill: rgb(230,96,97); fill-opacity: 1.0; stroke: none" transform="matrix(1,0,0,1,-0,-60)" ><path d="M 80 157.17 L 80 182.26 C 80 185.02 82.24 187.26 85 187.26 L 107.45 187.26 C 110.22 187.26 112.45 185.02 112.45 182.26 L 112.45 157.17 C 112.45 154.41 110.22 152.17 107.45 152.17 L 85 152.17 C 82.24 152.17 80 154.41 80 157.17 Z "/></g><g style="stroke-width: 1.0;stroke: rgb(255,255,255);stroke-opacity: 1.0;stroke-linecap: round;stroke-linejoin: round;; fill: none" transform="matrix(1,0,0,1,-0,-60)" ><path d="M 80 157.17 L 80 182.26 C 80 185.02 82.24 187.26 85 187.26 L 107.45 187.26 C 110.22 187.26 112.45 185.02 112.45 182.26 L 112.45 157.17 C 112.45 154.41 110.22 152.17 107.45 152.17 L 85 152.17 C 82.24 152.17 80 154.41 80 157.17 Z "/></g><g style="fill: rgb(230,96,97); fill-opacity: 1.0; stroke: none" transform="matrix(1,0,0,1,-0,-60)" ><path d="M 113.45 157.17 L 113.45 182.26 C 113.45 185.02 115.69 187.26 118.45 187.26 L 140.91 187.26 C 143.67 187.26 145.91 185.02 145.91 182.26 L 145.91 157.17 C 145.91 154.41 143.67 152.17 140.91 152.17 L 118.45 152.17 C 115.69 152.17 113.45 154.41 113.45 157.17 Z "/></g><g style="stroke-width: 1.0;stroke: rgb(255,255,255);stroke-opacity: 1.0;stroke-linecap: round;stroke-linejoin: round;; fill: none" transform="matrix(1,0,0,1,-0,-60)" ><path d="M 113.45 157.17 L 113.45 182.26 C 113.45 185.02 115.69 187.26 118.45 187.26 L 140.91 187.26 C 143.67 187.26 145.91 185.02 145.91 182.26 L 145.91 157.17 C 145.91 154.41 143.67 152.17 140.91 152.17 L 118.45 152.17 C 115.69 152.17 113.45 154.41 113.45 157.17 Z "/></g><g style="fill: rgb(229,73,75); fill-opacity: 1.0; stroke: none" transform="matrix(1,0,0,1,-0,-60)" ><path d="M 146.91 157.17 L 146.91 182.26 C 146.91 185.02 149.15 187.26 151.91 187.26 L 174.36 187.26 C 177.13 187.26 179.36 185.02 179.36 182.26 L 179.36 157.17 C 179.36 154.41 177.13 152.17 174.36 152.17 L 151.91 152.17 C 149.15 152.17 146.91 154.41 146.91 157.17 Z "/></g><g style="stroke-width: 1.0;stroke: rgb(255,255,255);stroke-opacity: 1.0;stroke-linecap: round;stroke-linejoin: round;; fill: none" transform="matrix(1,0,0,1,-0,-60)" ><path d="M 146.91 157.17 L 146.91 182.26 C 146.91 185.02 149.15 187.26 151.91 187.26 L 174.36 187.26 C 177.13 187.26 179.36 185.02 179.36 182.26 L 179.36 157.17 C 179.36 154.41 177.13 152.17 174.36 152.17 L 151.91 152.17 C 149.15 152.17 146.91 154.41 146.91 157.17 Z "/></g><g style="fill: rgb(230,96,97); fill-opacity: 1.0; stroke: none" transform="matrix(1,0,0,1,-0,-60)" ><path d="M 180.36 157.17 L 180.36 182.26 C 180.36 185.02 182.6 187.26 185.36 187.26 L 207.82 187.26 C 210.58 187.26 212.82 185.02 212.82 182.26 L 212.82 157.17 C 212.82 154.41 210.58 152.17 207.82 152.17 L 185.36 152.17 C 182.6 152.17 180.36 154.41 180.36 157.17 Z "/></g><g style="stroke-width: 1.0;stroke: rgb(255,255,255);stroke-opacity: 1.0;stroke-linecap: round;stroke-linejoin: round;; fill: none" transform="matrix(1,0,0,1,-0,-60)" ><path d="M 180.36 157.17 L 180.36 182.26 C 180.36 185.02 182.6 187.26 185.36 187.26 L 207.82 187.26 C 210.58 187.26 212.82 185.02 212.82 182.26 L 212.82 157.17 C 212.82 154.41 210.58 152.17 207.82 152.17 L 185.36 152.17 C 182.6 152.17 180.36 154.41 180.36 157.17 Z "/></g><g style="fill: rgb(231,105,106); fill-opacity: 1.0; stroke: none" transform="matrix(1,0,0,1,-0,-60)" ><path d="M 213.82 157.17 L 213.82 182.26 C 213.82 185.02 216.06 187.26 218.82 187.26 L 241.27 187.26 C 244.03 187.26 246.27 185.02 246.27 182.26 L 246.27 157.17 C 246.27 154.41 244.03 152.17 241.27 152.17 L 218.82 152.17 C 216.06 152.17 213.82 154.41 213.82 157.17 Z "/></g><g style="stroke-width: 1.0;stroke: rgb(255,255,255);stroke-opacity: 1.0;stroke-linecap: round;stroke-linejoin: round;; fill: none" transform="matrix(1,0,0,1,-0,-60)" ><path d="M 213.82 157.17 L 213.82 182.26 C 213.82 185.02 216.06 187.26 218.82 187.26 L 241.27 187.26 C 244.03 187.26 246.27 185.02 246.27 182.26 L 246.27 157.17 C 246.27 154.41 244.03 152.17 241.27 152.17 L 218.82 152.17 C 216.06 152.17 213.82 154.41 213.82 157.17 Z "/></g><g style="fill: rgb(128,128,128); fill-opacity: 1.0; stroke: none" transform="matrix(1,0,0,1,-0,-60)" ><path d="M 80 193.26 L 80 218.35 C 80 221.11 82.24 223.35 85 223.35 L 107.45 223.35 C 110.22 223.35 112.45 221.11 112.45 218.35 L 112.45 193.26 C 112.45 190.5 110.22 188.26 107.45 188.26 L 85 188.26 C 82.24 188.26 80 190.5 80 193.26 Z "/></g><g style="stroke-width: 1.0;stroke: rgb(255,255,255);stroke-opacity: 1.0;stroke-linecap: round;stroke-linejoin: round;; fill: none" transform="matrix(1,0,0,1,-0,-60)" ><path d="M 80 193.26 L 80 218.35 C 80 221.11 82.24 223.35 85 223.35 L 107.45 223.35 C 110.22 223.35 112.45 221.11 112.45 218.35 L 112.45 193.26 C 112.45 190.5 110.22 188.26 107.45 188.26 L 85 188.26 C 82.24 188.26 80 190.5 80 193.26 Z "/></g><g style="fill: rgb(128,128,128); fill-opacity: 1.0; stroke: none" transform="matrix(1,0,0,1,-0,-60)" ><path d="M 113.45 193.26 L 113.45 218.35 C 113.45 221.11 115.69 223.35 118.45 223.35 L 140.91 223.35 C 143.67 223.35 145.91 221.11 145.91 218.35 L 145.91 193.26 C 145.91 190.5 143.67 188.26 140.91 188.26 L 118.45 188.26 C 115.69 188.26 113.45 190.5 113.45 193.26 Z "/></g><g style="stroke-width: 1.0;stroke: rgb(255,255,255);stroke-opacity: 1.0;stroke-linecap: round;stroke-linejoin: round;; fill: none" transform="matrix(1,0,0,1,-0,-60)" ><path d="M 113.45 193.26 L 113.45 218.35 C 113.45 221.11 115.69 223.35 118.45 223.35 L 140.91 223.35 C 143.67 223.35 145.91 221.11 145.91 218.35 L 145.91 193.26 C 145.91 190.5 143.67 188.26 140.91 188.26 L 118.45 188.26 C 115.69 188.26 113.45 190.5 113.45 193.26 Z "/></g><g style="fill: rgb(230,92,93); fill-opacity: 1.0; stroke: none" transform="matrix(1,0,0,1,-0,-60)" ><path d="M 146.91 193.26 L 146.91 218.35 C 146.91 221.11 149.15 223.35 151.91 223.35 L 174.36 223.35 C 177.13 223.35 179.36 221.11 179.36 218.35 L 179.36 193.26 C 179.36 190.5 177.13 188.26 174.36 188.26 L 151.91 188.26 C 149.15 188.26 146.91 190.5 146.91 193.26 Z "/></g><g style="stroke-width: 1.0;stroke: rgb(255,255,255);stroke-opacity: 1.0;stroke-linecap: round;stroke-linejoin: round;; fill: none" transform="matrix(1,0,0,1,-0,-60)" ><path d="M 146.91 193.26 L 146.91 218.35 C 146.91 221.11 149.15 223.35 151.91 223.35 L 174.36 223.35 C 177.13 223.35 179.36 221.11 179.36 218.35 L 179.36 193.26 C 179.36 190.5 177.13 188.26 174.36 188.26 L 151.91 188.26 C 149.15 188.26 146.91 190.5 146.91 193.26 Z "/></g><g style="fill: rgb(230,96,97); fill-opacity: 1.0; stroke: none" transform="matrix(1,0,0,1,-0,-60)" ><path d="M 180.36 193.26 L 180.36 218.35 C 180.36 221.11 182.6 223.35 185.36 223.35 L 207.82 223.35 C 210.58 223.35 212.82 221.11 212.82 218.35 L 212.82 193.26 C 212.82 190.5 210.58 188.26 207.82 188.26 L 185.36 188.26 C 182.6 188.26 180.36 190.5 180.36 193.26 Z "/></g><g style="stroke-width: 1.0;stroke: rgb(255,255,255);stroke-opacity: 1.0;stroke-linecap: round;stroke-linejoin: round;; fill: none" transform="matrix(1,0,0,1,-0,-60)" ><path d="M 180.36 193.26 L 180.36 218.35 C 180.36 221.11 182.6 223.35 185.36 223.35 L 207.82 223.35 C 210.58 223.35 212.82 221.11 212.82 218.35 L 212.82 193.26 C 212.82 190.5 210.58 188.26 207.82 188.26 L 185.36 188.26 C 182.6 188.26 180.36 190.5 180.36 193.26 Z "/></g><g style="fill: rgb(230,87,88); fill-opacity: 1.0; stroke: none" transform="matrix(1,0,0,1,-0,-60)" ><path d="M 213.82 193.26 L 213.82 218.35 C 213.82 221.11 216.06 223.35 218.82 223.35 L 241.27 223.35 C 244.03 223.35 246.27 221.11 246.27 218.35 L 246.27 193.26 C 246.27 190.5 244.03 188.26 241.27 188.26 L 218.82 188.26 C 216.06 188.26 213.82 190.5 213.82 193.26 Z "/></g><g style="stroke-width: 1.0;stroke: rgb(255,255,255);stroke-opacity: 1.0;stroke-linecap: round;stroke-linejoin: round;; fill: none" transform="matrix(1,0,0,1,-0,-60)" ><path d="M 213.82 193.26 L 213.82 218.35 C 213.82 221.11 216.06 223.35 218.82 223.35 L 241.27 223.35 C 244.03 223.35 246.27 221.11 246.27 218.35 L 246.27 193.26 C 246.27 190.5 244.03 188.26 241.27 188.26 L 218.82 188.26 C 216.06 188.26 213.82 190.5 213.82 193.26 Z "/></g><g style="fill: rgb(230,96,97); fill-opacity: 1.0; stroke: none" transform="matrix(1,0,0,1,-0,-60)" ><path d="M 80 229.35 L 80 254.43 C 80 257.2 82.24 259.43 85 259.43 L 107.45 259.43 C 110.22 259.43 112.45 257.2 112.45 254.43 L 112.45 229.35 C 112.45 226.59 110.22 224.35 107.45 224.35 L 85 224.35 C 82.24 224.35 80 226.59 80 229.35 Z "/></g><g style="stroke-width: 1.0;stroke: rgb(255,255,255);stroke-opacity: 1.0;stroke-linecap: round;stroke-linejoin: round;; fill: none" transform="matrix(1,0,0,1,-0,-60)" ><path d="M 80 229.35 L 80 254.43 C 80 257.2 82.24 259.43 85 259.43 L 107.45 259.43 C 110.22 259.43 112.45 257.2 112.45 254.43 L 112.45 229.35 C 112.45 226.59 110.22 224.35 107.45 224.35 L 85 224.35 C 82.24 224.35 80 226.59 80 229.35 Z "/></g><g style="fill: rgb(230,96,97); fill-opacity: 1.0; stroke: none" transform="matrix(1,0,0,1,-0,-60)" ><path d="M 113.45 229.35 L 113.45 254.43 C 113.45 257.2 115.69 259.43 118.45 259.43 L 140.91 259.43 C 143.67 259.43 145.91 257.2 145.91 254.43 L 145.91 229.35 C 145.91 226.59 143.67 224.35 140.91 224.35 L 118.45 224.35 C 115.69 224.35 113.45 226.59 113.45 229.35 Z "/></g><g style="stroke-width: 1.0;stroke: rgb(255,255,255);stroke-opacity: 1.0;stroke-linecap: round;stroke-linejoin: round;; fill: none" transform="matrix(1,0,0,1,-0,-60)" ><path d="M 113.45 229.35 L 113.45 254.43 C 113.45 257.2 115.69 259.43 118.45 259.43 L 140.91 259.43 C 143.67 259.43 145.91 257.2 145.91 254.43 L 145.91 229.35 C 145.91 226.59 143.67 224.35 140.91 224.35 L 118.45 224.35 C 115.69 224.35 113.45 226.59 113.45 229.35 Z "/></g><g style="fill: rgb(230,101,102); fill-opacity: 1.0; stroke: none" transform="matrix(1,0,0,1,-0,-60)" ><path d="M 146.91 229.35 L 146.91 254.43 C 146.91 257.2 149.15 259.43 151.91 259.43 L 174.36 259.43 C 177.13 259.43 179.36 257.2 179.36 254.43 L 179.36 229.35 C 179.36 226.59 177.13 224.35 174.36 224.35 L 151.91 224.35 C 149.15 224.35 146.91 226.59 146.91 229.35 Z "/></g><g style="stroke-width: 1.0;stroke: rgb(255,255,255);stroke-opacity: 1.0;stroke-linecap: round;stroke-linejoin: round;; fill: none" transform="matrix(1,0,0,1,-0,-60)" ><path d="M 146.91 229.35 L 146.91 254.43 C 146.91 257.2 149.15 259.43 151.91 259.43 L 174.36 259.43 C 177.13 259.43 179.36 257.2 179.36 254.43 L 179.36 229.35 C 179.36 226.59 177.13 224.35 174.36 224.35 L 151.91 224.35 C 149.15 224.35 146.91 226.59 146.91 229.35 Z "/></g><g style="fill: rgb(230,96,97); fill-opacity: 1.0; stroke: none" transform="matrix(1,0,0,1,-0,-60)" ><path d="M 180.36 229.35 L 180.36 254.43 C 180.36 257.2 182.6 259.43 185.36 259.43 L 207.82 259.43 C 210.58 259.43 212.82 257.2 212.82 254.43 L 212.82 229.35 C 212.82 226.59 210.58 224.35 207.82 224.35 L 185.36 224.35 C 182.6 224.35 180.36 226.59 180.36 229.35 Z "/></g><g style="stroke-width: 1.0;stroke: rgb(255,255,255);stroke-opacity: 1.0;stroke-linecap: round;stroke-linejoin: round;; fill: none" transform="matrix(1,0,0,1,-0,-60)" ><path d="M 180.36 229.35 L 180.36 254.43 C 180.36 257.2 182.6 259.43 185.36 259.43 L 207.82 259.43 C 210.58 259.43 212.82 257.2 212.82 254.43 L 212.82 229.35 C 212.82 226.59 210.58 224.35 207.82 224.35 L 185.36 224.35 C 182.6 224.35 180.36 226.59 180.36 229.35 Z "/></g><g style="fill: rgb(231,105,107); fill-opacity: 1.0; stroke: none" transform="matrix(1,0,0,1,-0,-60)" ><path d="M 213.82 229.35 L 213.82 254.43 C 213.82 257.2 216.06 259.43 218.82 259.43 L 241.27 259.43 C 244.03 259.43 246.27 257.2 246.27 254.43 L 246.27 229.35 C 246.27 226.59 244.03 224.35 241.27 224.35 L 218.82 224.35 C 216.06 224.35 213.82 226.59 213.82 229.35 Z "/></g><g style="stroke-width: 1.0;stroke: rgb(255,255,255);stroke-opacity: 1.0;stroke-linecap: round;stroke-linejoin: round;; fill: none" transform="matrix(1,0,0,1,-0,-60)" ><path d="M 213.82 229.35 L 213.82 254.43 C 213.82 257.2 216.06 259.43 218.82 259.43 L 241.27 259.43 C 244.03 259.43 246.27 257.2 246.27 254.43 L 246.27 229.35 C 246.27 226.59 244.03 224.35 241.27 224.35 L 218.82 224.35 C 216.06 224.35 213.82 226.59 213.82 229.35 Z "/></g><g style="fill: rgb(230,96,97); fill-opacity: 1.0; stroke: none" transform="matrix(1,0,0,1,-0,-60)" ><path d="M 80 265.43 L 80 290.52 C 80 293.28 82.24 295.52 85 295.52 L 107.45 295.52 C 110.22 295.52 112.45 293.28 112.45 290.52 L 112.45 265.43 C 112.45 262.67 110.22 260.43 107.45 260.43 L 85 260.43 C 82.24 260.43 80 262.67 80 265.43 Z "/></g><g style="stroke-width: 1.0;stroke: rgb(255,255,255);stroke-opacity: 1.0;stroke-linecap: round;stroke-linejoin: round;; fill: none" transform="matrix(1,0,0,1,-0,-60)" ><path d="M 80 265.43 L 80 290.52 C 80 293.28 82.24 295.52 85 295.52 L 107.45 295.52 C 110.22 295.52 112.45 293.28 112.45 290.52 L 112.45 265.43 C 112.45 262.67 110.22 260.43 107.45 260.43 L 85 260.43 C 82.24 260.43 80 262.67 80 265.43 Z "/></g><g style="fill: rgb(230,96,97); fill-opacity: 1.0; stroke: none" transform="matrix(1,0,0,1,-0,-60)" ><path d="M 113.45 265.43 L 113.45 290.52 C 113.45 293.28 115.69 295.52 118.45 295.52 L 140.91 295.52 C 143.67 295.52 145.91 293.28 145.91 290.52 L 145.91 265.43 C 145.91 262.67 143.67 260.43 140.91 260.43 L 118.45 260.43 C 115.69 260.43 113.45 262.67 113.45 265.43 Z "/></g><g style="stroke-width: 1.0;stroke: rgb(255,255,255);stroke-opacity: 1.0;stroke-linecap: round;stroke-linejoin: round;; fill: none" transform="matrix(1,0,0,1,-0,-60)" ><path d="M 113.45 265.43 L 113.45 290.52 C 113.45 293.28 115.69 295.52 118.45 295.52 L 140.91 295.52 C 143.67 295.52 145.91 293.28 145.91 290.52 L 145.91 265.43 C 145.91 262.67 143.67 260.43 140.91 260.43 L 118.45 260.43 C 115.69 260.43 113.45 262.67 113.45 265.43 Z "/></g><g style="fill: rgb(230,97,98); fill-opacity: 1.0; stroke: none" transform="matrix(1,0,0,1,-0,-60)" ><path d="M 146.91 265.43 L 146.91 290.52 C 146.91 293.28 149.15 295.52 151.91 295.52 L 174.36 295.52 C 177.13 295.52 179.36 293.28 179.36 290.52 L 179.36 265.43 C 179.36 262.67 177.13 260.43 174.36 260.43 L 151.91 260.43 C 149.15 260.43 146.91 262.67 146.91 265.43 Z "/></g><g style="stroke-width: 1.0;stroke: rgb(255,255,255);stroke-opacity: 1.0;stroke-linecap: round;stroke-linejoin: round;; fill: none" transform="matrix(1,0,0,1,-0,-60)" ><path d="M 146.91 265.43 L 146.91 290.52 C 146.91 293.28 149.15 295.52 151.91 295.52 L 174.36 295.52 C 177.13 295.52 179.36 293.28 179.36 290.52 L 179.36 265.43 C 179.36 262.67 177.13 260.43 174.36 260.43 L 151.91 260.43 C 149.15 260.43 146.91 262.67 146.91 265.43 Z "/></g><g style="fill: rgb(230,96,97); fill-opacity: 1.0; stroke: none" transform="matrix(1,0,0,1,-0,-60)" ><path d="M 180.36 265.43 L 180.36 290.52 C 180.36 293.28 182.6 295.52 185.36 295.52 L 207.82 295.52 C 210.58 295.52 212.82 293.28 212.82 290.52 L 212.82 265.43 C 212.82 262.67 210.58 260.43 207.82 260.43 L 185.36 260.43 C 182.6 260.43 180.36 262.67 180.36 265.43 Z "/></g><g style="stroke-width: 1.0;stroke: rgb(255,255,255);stroke-opacity: 1.0;stroke-linecap: round;stroke-linejoin: round;; fill: none" transform="matrix(1,0,0,1,-0,-60)" ><path d="M 180.36 265.43 L 180.36 290.52 C 180.36 293.28 182.6 295.52 185.36 295.52 L 207.82 295.52 C 210.58 295.52 212.82 293.28 212.82 290.52 L 212.82 265.43 C 212.82 262.67 210.58 260.43 207.82 260.43 L 185.36 260.43 C 182.6 260.43 180.36 262.67 180.36 265.43 Z "/></g><g style="fill: rgb(227,27,29); fill-opacity: 1.0; stroke: none" transform="matrix(1,0,0,1,-0,-60)" ><path d="M 213.82 265.43 L 213.82 290.52 C 213.82 293.28 216.06 295.52 218.82 295.52 L 241.27 295.52 C 244.03 295.52 246.27 293.28 246.27 290.52 L 246.27 265.43 C 246.27 262.67 244.03 260.43 241.27 260.43 L 218.82 260.43 C 216.06 260.43 213.82 262.67 213.82 265.43 Z "/></g><g style="stroke-width: 1.0;stroke: rgb(255,255,255);stroke-opacity: 1.0;stroke-linecap: round;stroke-linejoin: round;; fill: none" transform="matrix(1,0,0,1,-0,-60)" ><path d="M 213.82 265.43 L 213.82 290.52 C 213.82 293.28 216.06 295.52 218.82 295.52 L 241.27 295.52 C 244.03 295.52 246.27 293.28 246.27 290.52 L 246.27 265.43 C 246.27 262.67 244.03 260.43 241.27 260.43 L 218.82 260.43 C 216.06 260.43 213.82 262.67 213.82 265.43 Z "/></g><g style="fill: rgb(128,128,128); fill-opacity: 1.0; stroke: none" transform="matrix(1,0,0,1,-0,-60)" ><path d="M 80 301.52 L 80 326.61 C 80 329.37 82.24 331.61 85 331.61 L 107.45 331.61 C 110.22 331.61 112.45 329.37 112.45 326.61 L 112.45 301.52 C 112.45 298.76 110.22 296.52 107.45 296.52 L 85 296.52 C 82.24 296.52 80 298.76 80 301.52 Z "/></g><g style="stroke-width: 1.0;stroke: rgb(255,255,255);stroke-opacity: 1.0;stroke-linecap: round;stroke-linejoin: round;; fill: none" transform="matrix(1,0,0,1,-0,-60)" ><path d="M 80 301.52 L 80 326.61 C 80 329.37 82.24 331.61 85 331.61 L 107.45 331.61 C 110.22 331.61 112.45 329.37 112.45 326.61 L 112.45 301.52 C 112.45 298.76 110.22 296.52 107.45 296.52 L 85 296.52 C 82.24 296.52 80 298.76 80 301.52 Z "/></g><g style="fill: rgb(128,128,128); fill-opacity: 1.0; stroke: none" transform="matrix(1,0,0,1,-0,-60)" ><path d="M 113.45 301.52 L 113.45 326.61 C 113.45 329.37 115.69 331.61 118.45 331.61 L 140.91 331.61 C 143.67 331.61 145.91 329.37 145.91 326.61 L 145.91 301.52 C 145.91 298.76 143.67 296.52 140.91 296.52 L 118.45 296.52 C 115.69 296.52 113.45 298.76 113.45 301.52 Z "/></g><g style="stroke-width: 1.0;stroke: rgb(255,255,255);stroke-opacity: 1.0;stroke-linecap: round;stroke-linejoin: round;; fill: none" transform="matrix(1,0,0,1,-0,-60)" ><path d="M 113.45 301.52 L 113.45 326.61 C 113.45 329.37 115.69 331.61 118.45 331.61 L 140.91 331.61 C 143.67 331.61 145.91 329.37 145.91 326.61 L 145.91 301.52 C 145.91 298.76 143.67 296.52 140.91 296.52 L 118.45 296.52 C 115.69 296.52 113.45 298.76 113.45 301.52 Z "/></g><g style="fill: rgb(231,104,105); fill-opacity: 1.0; stroke: none" transform="matrix(1,0,0,1,-0,-60)" ><path d="M 146.91 301.52 L 146.91 326.61 C 146.91 329.37 149.15 331.61 151.91 331.61 L 174.36 331.61 C 177.13 331.61 179.36 329.37 179.36 326.61 L 179.36 301.52 C 179.36 298.76 177.13 296.52 174.36 296.52 L 151.91 296.52 C 149.15 296.52 146.91 298.76 146.91 301.52 Z "/></g><g style="stroke-width: 1.0;stroke: rgb(255,255,255);stroke-opacity: 1.0;stroke-linecap: round;stroke-linejoin: round;; fill: none" transform="matrix(1,0,0,1,-0,-60)" ><path d="M 146.91 301.52 L 146.91 326.61 C 146.91 329.37 149.15 331.61 151.91 331.61 L 174.36 331.61 C 177.13 331.61 179.36 329.37 179.36 326.61 L 179.36 301.52 C 179.36 298.76 177.13 296.52 174.36 296.52 L 151.91 296.52 C 149.15 296.52 146.91 298.76 146.91 301.52 Z "/></g><g style="fill: rgb(230,96,97); fill-opacity: 1.0; stroke: none" transform="matrix(1,0,0,1,-0,-60)" ><path d="M 180.36 301.52 L 180.36 326.61 C 180.36 329.37 182.6 331.61 185.36 331.61 L 207.82 331.61 C 210.58 331.61 212.82 329.37 212.82 326.61 L 212.82 301.52 C 212.82 298.76 210.58 296.52 207.82 296.52 L 185.36 296.52 C 182.6 296.52 180.36 298.76 180.36 301.52 Z "/></g><g style="stroke-width: 1.0;stroke: rgb(255,255,255);stroke-opacity: 1.0;stroke-linecap: round;stroke-linejoin: round;; fill: none" transform="matrix(1,0,0,1,-0,-60)" ><path d="M 180.36 301.52 L 180.36 326.61 C 180.36 329.37 182.6 331.61 185.36 331.61 L 207.82 331.61 C 210.58 331.61 212.82 329.37 212.82 326.61 L 212.82 301.52 C 212.82 298.76 210.58 296.52 207.82 296.52 L 185.36 296.52 C 182.6 296.52 180.36 298.76 180.36 301.52 Z "/></g><g style="fill: rgb(229,66,67); fill-opacity: 1.0; stroke: none" transform="matrix(1,0,0,1,-0,-60)" ><path d="M 213.82 301.52 L 213.82 326.61 C 213.82 329.37 216.06 331.61 218.82 331.61 L 241.27 331.61 C 244.03 331.61 246.27 329.37 246.27 326.61 L 246.27 301.52 C 246.27 298.76 244.03 296.52 241.27 296.52 L 218.82 296.52 C 216.06 296.52 213.82 298.76 213.82 301.52 Z "/></g><g style="stroke-width: 1.0;stroke: rgb(255,255,255);stroke-opacity: 1.0;stroke-linecap: round;stroke-linejoin: round;; fill: none" transform="matrix(1,0,0,1,-0,-60)" ><path d="M 213.82 301.52 L 213.82 326.61 C 213.82 329.37 216.06 331.61 218.82 331.61 L 241.27 331.61 C 244.03 331.61 246.27 329.37 246.27 326.61 L 246.27 301.52 C 246.27 298.76 244.03 296.52 241.27 296.52 L 218.82 296.52 C 216.06 296.52 213.82 298.76 213.82 301.52 Z "/></g><g style="fill: rgb(128,128,128); fill-opacity: 1.0; stroke: none" transform="matrix(1,0,0,1,-0,-60)" ><path d="M 80 337.61 L 80 362.7 C 80 365.46 82.24 367.7 85 367.7 L 107.45 367.7 C 110.22 367.7 112.45 365.46 112.45 362.7 L 112.45 337.61 C 112.45 334.85 110.22 332.61 107.45 332.61 L 85 332.61 C 82.24 332.61 80 334.85 80 337.61 Z "/></g><g style="stroke-width: 1.0;stroke: rgb(255,255,255);stroke-opacity: 1.0;stroke-linecap: round;stroke-linejoin: round;; fill: none" transform="matrix(1,0,0,1,-0,-60)" ><path d="M 80 337.61 L 80 362.7 C 80 365.46 82.24 367.7 85 367.7 L 107.45 367.7 C 110.22 367.7 112.45 365.46 112.45 362.7 L 112.45 337.61 C 112.45 334.85 110.22 332.61 107.45 332.61 L 85 332.61 C 82.24 332.61 80 334.85 80 337.61 Z "/></g><g style="fill: rgb(128,128,128); fill-opacity: 1.0; stroke: none" transform="matrix(1,0,0,1,-0,-60)" ><path d="M 113.45 337.61 L 113.45 362.7 C 113.45 365.46 115.69 367.7 118.45 367.7 L 140.91 367.7 C 143.67 367.7 145.91 365.46 145.91 362.7 L 145.91 337.61 C 145.91 334.85 143.67 332.61 140.91 332.61 L 118.45 332.61 C 115.69 332.61 113.45 334.85 113.45 337.61 Z "/></g><g style="stroke-width: 1.0;stroke: rgb(255,255,255);stroke-opacity: 1.0;stroke-linecap: round;stroke-linejoin: round;; fill: none" transform="matrix(1,0,0,1,-0,-60)" ><path d="M 113.45 337.61 L 113.45 362.7 C 113.45 365.46 115.69 367.7 118.45 367.7 L 140.91 367.7 C 143.67 367.7 145.91 365.46 145.91 362.7 L 145.91 337.61 C 145.91 334.85 143.67 332.61 140.91 332.61 L 118.45 332.61 C 115.69 332.61 113.45 334.85 113.45 337.61 Z "/></g><g style="fill: rgb(237,225,226); fill-opacity: 1.0; stroke: none" transform="matrix(1,0,0,1,-0,-60)" ><path d="M 146.91 337.61 L 146.91 362.7 C 146.91 365.46 149.15 367.7 151.91 367.7 L 174.36 367.7 C 177.13 367.7 179.36 365.46 179.36 362.7 L 179.36 337.61 C 179.36 334.85 177.13 332.61 174.36 332.61 L 151.91 332.61 C 149.15 332.61 146.91 334.85 146.91 337.61 Z "/></g><g style="stroke-width: 1.0;stroke: rgb(255,255,255);stroke-opacity: 1.0;stroke-linecap: round;stroke-linejoin: round;; fill: none" transform="matrix(1,0,0,1,-0,-60)" ><path d="M 146.91 337.61 L 146.91 362.7 C 146.91 365.46 149.15 367.7 151.91 367.7 L 174.36 367.7 C 177.13 367.7 179.36 365.46 179.36 362.7 L 179.36 337.61 C 179.36 334.85 177.13 332.61 174.36 332.61 L 151.91 332.61 C 149.15 332.61 146.91 334.85 146.91 337.61 Z "/></g><g style="fill: rgb(230,96,97); fill-opacity: 1.0; stroke: none" transform="matrix(1,0,0,1,-0,-60)" ><path d="M 180.36 337.61 L 180.36 362.7 C 180.36 365.46 182.6 367.7 185.36 367.7 L 207.82 367.7 C 210.58 367.7 212.82 365.46 212.82 362.7 L 212.82 337.61 C 212.82 334.85 210.58 332.61 207.82 332.61 L 185.36 332.61 C 182.6 332.61 180.36 334.85 180.36 337.61 Z "/></g><g style="stroke-width: 1.0;stroke: rgb(255,255,255);stroke-opacity: 1.0;stroke-linecap: round;stroke-linejoin: round;; fill: none" transform="matrix(1,0,0,1,-0,-60)" ><path d="M 180.36 337.61 L 180.36 362.7 C 180.36 365.46 182.6 367.7 185.36 367.7 L 207.82 367.7 C 210.58 367.7 212.82 365.46 212.82 362.7 L 212.82 337.61 C 212.82 334.85 210.58 332.61 207.82 332.61 L 185.36 332.61 C 182.6 332.61 180.36 334.85 180.36 337.61 Z "/></g><g style="fill: rgb(237,218,219); fill-opacity: 1.0; stroke: none" transform="matrix(1,0,0,1,-0,-60)" ><path d="M 213.82 337.61 L 213.82 362.7 C 213.82 365.46 216.06 367.7 218.82 367.7 L 241.27 367.7 C 244.03 367.7 246.27 365.46 246.27 362.7 L 246.27 337.61 C 246.27 334.85 244.03 332.61 241.27 332.61 L 218.82 332.61 C 216.06 332.61 213.82 334.85 213.82 337.61 Z "/></g><g style="stroke-width: 1.0;stroke: rgb(255,255,255);stroke-opacity: 1.0;stroke-linecap: round;stroke-linejoin: round;; fill: none" transform="matrix(1,0,0,1,-0,-60)" ><path d="M 213.82 337.61 L 213.82 362.7 C 213.82 365.46 216.06 367.7 218.82 367.7 L 241.27 367.7 C 244.03 367.7 246.27 365.46 246.27 362.7 L 246.27 337.61 C 246.27 334.85 244.03 332.61 241.27 332.61 L 218.82 332.61 C 216.06 332.61 213.82 334.85 213.82 337.61 Z "/></g><g style="fill: rgb(230,96,97); fill-opacity: 1.0; stroke: none" transform="matrix(1,0,0,1,-0,-60)" ><path d="M 80 373.7 L 80 398.78 C 80 401.54 82.24 403.78 85 403.78 L 107.45 403.78 C 110.22 403.78 112.45 401.54 112.45 398.78 L 112.45 373.7 C 112.45 370.93 110.22 368.7 107.45 368.7 L 85 368.7 C 82.24 368.7 80 370.93 80 373.7 Z "/></g><g style="stroke-width: 1.0;stroke: rgb(255,255,255);stroke-opacity: 1.0;stroke-linecap: round;stroke-linejoin: round;; fill: none" transform="matrix(1,0,0,1,-0,-60)" ><path d="M 80 373.7 L 80 398.78 C 80 401.54 82.24 403.78 85 403.78 L 107.45 403.78 C 110.22 403.78 112.45 401.54 112.45 398.78 L 112.45 373.7 C 112.45 370.93 110.22 368.7 107.45 368.7 L 85 368.7 C 82.24 368.7 80 370.93 80 373.7 Z "/></g><g style="fill: rgb(230,96,97); fill-opacity: 1.0; stroke: none" transform="matrix(1,0,0,1,-0,-60)" ><path d="M 113.45 373.7 L 113.45 398.78 C 113.45 401.54 115.69 403.78 118.45 403.78 L 140.91 403.78 C 143.67 403.78 145.91 401.54 145.91 398.78 L 145.91 373.7 C 145.91 370.93 143.67 368.7 140.91 368.7 L 118.45 368.7 C 115.69 368.7 113.45 370.93 113.45 373.7 Z "/></g><g style="stroke-width: 1.0;stroke: rgb(255,255,255);stroke-opacity: 1.0;stroke-linecap: round;stroke-linejoin: round;; fill: none" transform="matrix(1,0,0,1,-0,-60)" ><path d="M 113.45 373.7 L 113.45 398.78 C 113.45 401.54 115.69 403.78 118.45 403.78 L 140.91 403.78 C 143.67 403.78 145.91 401.54 145.91 398.78 L 145.91 373.7 C 145.91 370.93 143.67 368.7 140.91 368.7 L 118.45 368.7 C 115.69 368.7 113.45 370.93 113.45 373.7 Z "/></g><g style="fill: rgb(233,153,154); fill-opacity: 1.0; stroke: none" transform="matrix(1,0,0,1,-0,-60)" ><path d="M 146.91 373.7 L 146.91 398.78 C 146.91 401.54 149.15 403.78 151.91 403.78 L 174.36 403.78 C 177.13 403.78 179.36 401.54 179.36 398.78 L 179.36 373.7 C 179.36 370.93 177.13 368.7 174.36 368.7 L 151.91 368.7 C 149.15 368.7 146.91 370.93 146.91 373.7 Z "/></g><g style="stroke-width: 1.0;stroke: rgb(255,255,255);stroke-opacity: 1.0;stroke-linecap: round;stroke-linejoin: round;; fill: none" transform="matrix(1,0,0,1,-0,-60)" ><path d="M 146.91 373.7 L 146.91 398.78 C 146.91 401.54 149.15 403.78 151.91 403.78 L 174.36 403.78 C 177.13 403.78 179.36 401.54 179.36 398.78 L 179.36 373.7 C 179.36 370.93 177.13 368.7 174.36 368.7 L 151.91 368.7 C 149.15 368.7 146.91 370.93 146.91 373.7 Z "/></g><g style="fill: rgb(230,96,97); fill-opacity: 1.0; stroke: none" transform="matrix(1,0,0,1,-0,-60)" ><path d="M 180.36 373.7 L 180.36 398.78 C 180.36 401.54 182.6 403.78 185.36 403.78 L 207.82 403.78 C 210.58 403.78 212.82 401.54 212.82 398.78 L 212.82 373.7 C 212.82 370.93 210.58 368.7 207.82 368.7 L 185.36 368.7 C 182.6 368.7 180.36 370.93 180.36 373.7 Z "/></g><g style="stroke-width: 1.0;stroke: rgb(255,255,255);stroke-opacity: 1.0;stroke-linecap: round;stroke-linejoin: round;; fill: none" transform="matrix(1,0,0,1,-0,-60)" ><path d="M 180.36 373.7 L 180.36 398.78 C 180.36 401.54 182.6 403.78 185.36 403.78 L 207.82 403.78 C 210.58 403.78 212.82 401.54 212.82 398.78 L 212.82 373.7 C 212.82 370.93 210.58 368.7 207.82 368.7 L 185.36 368.7 C 182.6 368.7 180.36 370.93 180.36 373.7 Z "/></g><g style="fill: rgb(230,97,98); fill-opacity: 1.0; stroke: none" transform="matrix(1,0,0,1,-0,-60)" ><path d="M 213.82 373.7 L 213.82 398.78 C 213.82 401.54 216.06 403.78 218.82 403.78 L 241.27 403.78 C 244.03 403.78 246.27 401.54 246.27 398.78 L 246.27 373.7 C 246.27 370.93 244.03 368.7 241.27 368.7 L 218.82 368.7 C 216.06 368.7 213.82 370.93 213.82 373.7 Z "/></g><g style="stroke-width: 1.0;stroke: rgb(255,255,255);stroke-opacity: 1.0;stroke-linecap: round;stroke-linejoin: round;; fill: none" transform="matrix(1,0,0,1,-0,-60)" ><path d="M 213.82 373.7 L 213.82 398.78 C 213.82 401.54 216.06 403.78 218.82 403.78 L 241.27 403.78 C 244.03 403.78 246.27 401.54 246.27 398.78 L 246.27 373.7 C 246.27 370.93 244.03 368.7 241.27 368.7 L 218.82 368.7 C 216.06 368.7 213.82 370.93 213.82 373.7 Z "/></g><g style="fill: rgb(128,128,128); fill-opacity: 1.0; stroke: none" transform="matrix(1,0,0,1,-0,-60)" ><path d="M 80 409.78 L 80 434.87 C 80 437.63 82.24 439.87 85 439.87 L 107.45 439.87 C 110.22 439.87 112.45 437.63 112.45 434.87 L 112.45 409.78 C 112.45 407.02 110.22 404.78 107.45 404.78 L 85 404.78 C 82.24 404.78 80 407.02 80 409.78 Z "/></g><g style="stroke-width: 1.0;stroke: rgb(255,255,255);stroke-opacity: 1.0;stroke-linecap: round;stroke-linejoin: round;; fill: none" transform="matrix(1,0,0,1,-0,-60)" ><path d="M 80 409.78 L 80 434.87 C 80 437.63 82.24 439.87 85 439.87 L 107.45 439.87 C 110.22 439.87 112.45 437.63 112.45 434.87 L 112.45 409.78 C 112.45 407.02 110.22 404.78 107.45 404.78 L 85 404.78 C 82.24 404.78 80 407.02 80 409.78 Z "/></g><g style="fill: rgb(128,128,128); fill-opacity: 1.0; stroke: none" transform="matrix(1,0,0,1,-0,-60)" ><path d="M 113.45 409.78 L 113.45 434.87 C 113.45 437.63 115.69 439.87 118.45 439.87 L 140.91 439.87 C 143.67 439.87 145.91 437.63 145.91 434.87 L 145.91 409.78 C 145.91 407.02 143.67 404.78 140.91 404.78 L 118.45 404.78 C 115.69 404.78 113.45 407.02 113.45 409.78 Z "/></g><g style="stroke-width: 1.0;stroke: rgb(255,255,255);stroke-opacity: 1.0;stroke-linecap: round;stroke-linejoin: round;; fill: none" transform="matrix(1,0,0,1,-0,-60)" ><path d="M 113.45 409.78 L 113.45 434.87 C 113.45 437.63 115.69 439.87 118.45 439.87 L 140.91 439.87 C 143.67 439.87 145.91 437.63 145.91 434.87 L 145.91 409.78 C 145.91 407.02 143.67 404.78 140.91 404.78 L 118.45 404.78 C 115.69 404.78 113.45 407.02 113.45 409.78 Z "/></g><g style="fill: rgb(234,161,162); fill-opacity: 1.0; stroke: none" transform="matrix(1,0,0,1,-0,-60)" ><path d="M 146.91 409.78 L 146.91 434.87 C 146.91 437.63 149.15 439.87 151.91 439.87 L 174.36 439.87 C 177.13 439.87 179.36 437.63 179.36 434.87 L 179.36 409.78 C 179.36 407.02 177.13 404.78 174.36 404.78 L 151.91 404.78 C 149.15 404.78 146.91 407.02 146.91 409.78 Z "/></g><g style="stroke-width: 1.0;stroke: rgb(255,255,255);stroke-opacity: 1.0;stroke-linecap: round;stroke-linejoin: round;; fill: none" transform="matrix(1,0,0,1,-0,-60)" ><path d="M 146.91 409.78 L 146.91 434.87 C 146.91 437.63 149.15 439.87 151.91 439.87 L 174.36 439.87 C 177.13 439.87 179.36 437.63 179.36 434.87 L 179.36 409.78 C 179.36 407.02 177.13 404.78 174.36 404.78 L 151.91 404.78 C 149.15 404.78 146.91 407.02 146.91 409.78 Z "/></g><g style="fill: rgb(230,96,97); fill-opacity: 1.0; stroke: none" transform="matrix(1,0,0,1,-0,-60)" ><path d="M 180.36 409.78 L 180.36 434.87 C 180.36 437.63 182.6 439.87 185.36 439.87 L 207.82 439.87 C 210.58 439.87 212.82 437.63 212.82 434.87 L 212.82 409.78 C 212.82 407.02 210.58 404.78 207.82 404.78 L 185.36 404.78 C 182.6 404.78 180.36 407.02 180.36 409.78 Z "/></g><g style="stroke-width: 1.0;stroke: rgb(255,255,255);stroke-opacity: 1.0;stroke-linecap: round;stroke-linejoin: round;; fill: none" transform="matrix(1,0,0,1,-0,-60)" ><path d="M 180.36 409.78 L 180.36 434.87 C 180.36 437.63 182.6 439.87 185.36 439.87 L 207.82 439.87 C 210.58 439.87 212.82 437.63 212.82 434.87 L 212.82 409.78 C 212.82 407.02 210.58 404.78 207.82 404.78 L 185.36 404.78 C 182.6 404.78 180.36 407.02 180.36 409.78 Z "/></g><g style="fill: rgb(233,152,153); fill-opacity: 1.0; stroke: none" transform="matrix(1,0,0,1,-0,-60)" ><path d="M 213.82 409.78 L 213.82 434.87 C 213.82 437.63 216.06 439.87 218.82 439.87 L 241.27 439.87 C 244.03 439.87 246.27 437.63 246.27 434.87 L 246.27 409.78 C 246.27 407.02 244.03 404.78 241.27 404.78 L 218.82 404.78 C 216.06 404.78 213.82 407.02 213.82 409.78 Z "/></g><g style="stroke-width: 1.0;stroke: rgb(255,255,255);stroke-opacity: 1.0;stroke-linecap: round;stroke-linejoin: round;; fill: none" transform="matrix(1,0,0,1,-0,-60)" ><path d="M 213.82 409.78 L 213.82 434.87 C 213.82 437.63 216.06 439.87 218.82 439.87 L 241.27 439.87 C 244.03 439.87 246.27 437.63 246.27 434.87 L 246.27 409.78 C 246.27 407.02 244.03 404.78 241.27 404.78 L 218.82 404.78 C 216.06 404.78 213.82 407.02 213.82 409.78 Z "/></g><g style="fill: rgb(230,96,97); fill-opacity: 1.0; stroke: none" transform="matrix(1,0,0,1,-0,-60)" ><path d="M 80 445.87 L 80 470.96 C 80 473.72 82.24 475.96 85 475.96 L 107.45 475.96 C 110.22 475.96 112.45 473.72 112.45 470.96 L 112.45 445.87 C 112.45 443.11 110.22 440.87 107.45 440.87 L 85 440.87 C 82.24 440.87 80 443.11 80 445.87 Z "/></g><g style="stroke-width: 1.0;stroke: rgb(255,255,255);stroke-opacity: 1.0;stroke-linecap: round;stroke-linejoin: round;; fill: none" transform="matrix(1,0,0,1,-0,-60)" ><path d="M 80 445.87 L 80 470.96 C 80 473.72 82.24 475.96 85 475.96 L 107.45 475.96 C 110.22 475.96 112.45 473.72 112.45 470.96 L 112.45 445.87 C 112.45 443.11 110.22 440.87 107.45 440.87 L 85 440.87 C 82.24 440.87 80 443.11 80 445.87 Z "/></g><g style="fill: rgb(230,96,97); fill-opacity: 1.0; stroke: none" transform="matrix(1,0,0,1,-0,-60)" ><path d="M 113.45 445.87 L 113.45 470.96 C 113.45 473.72 115.69 475.96 118.45 475.96 L 140.91 475.96 C 143.67 475.96 145.91 473.72 145.91 470.96 L 145.91 445.87 C 145.91 443.11 143.67 440.87 140.91 440.87 L 118.45 440.87 C 115.69 440.87 113.45 443.11 113.45 445.87 Z "/></g><g style="stroke-width: 1.0;stroke: rgb(255,255,255);stroke-opacity: 1.0;stroke-linecap: round;stroke-linejoin: round;; fill: none" transform="matrix(1,0,0,1,-0,-60)" ><path d="M 113.45 445.87 L 113.45 470.96 C 113.45 473.72 115.69 475.96 118.45 475.96 L 140.91 475.96 C 143.67 475.96 145.91 473.72 145.91 470.96 L 145.91 445.87 C 145.91 443.11 143.67 440.87 140.91 440.87 L 118.45 440.87 C 115.69 440.87 113.45 443.11 113.45 445.87 Z "/></g><g style="fill: rgb(232,139,139); fill-opacity: 1.0; stroke: none" transform="matrix(1,0,0,1,-0,-60)" ><path d="M 146.91 445.87 L 146.91 470.96 C 146.91 473.72 149.15 475.96 151.91 475.96 L 174.36 475.96 C 177.13 475.96 179.36 473.72 179.36 470.96 L 179.36 445.87 C 179.36 443.11 177.13 440.87 174.36 440.87 L 151.91 440.87 C 149.15 440.87 146.91 443.11 146.91 445.87 Z "/></g><g style="stroke-width: 1.0;stroke: rgb(255,255,255);stroke-opacity: 1.0;stroke-linecap: round;stroke-linejoin: round;; fill: none" transform="matrix(1,0,0,1,-0,-60)" ><path d="M 146.91 445.87 L 146.91 470.96 C 146.91 473.72 149.15 475.96 151.91 475.96 L 174.36 475.96 C 177.13 475.96 179.36 473.72 179.36 470.96 L 179.36 445.87 C 179.36 443.11 177.13 440.87 174.36 440.87 L 151.91 440.87 C 149.15 440.87 146.91 443.11 146.91 445.87 Z "/></g><g style="fill: rgb(230,96,97); fill-opacity: 1.0; stroke: none" transform="matrix(1,0,0,1,-0,-60)" ><path d="M 180.36 445.87 L 180.36 470.96 C 180.36 473.72 182.6 475.96 185.36 475.96 L 207.82 475.96 C 210.58 475.96 212.82 473.72 212.82 470.96 L 212.82 445.87 C 212.82 443.11 210.58 440.87 207.82 440.87 L 185.36 440.87 C 182.6 440.87 180.36 443.11 180.36 445.87 Z "/></g><g style="stroke-width: 1.0;stroke: rgb(255,255,255);stroke-opacity: 1.0;stroke-linecap: round;stroke-linejoin: round;; fill: none" transform="matrix(1,0,0,1,-0,-60)" ><path d="M 180.36 445.87 L 180.36 470.96 C 180.36 473.72 182.6 475.96 185.36 475.96 L 207.82 475.96 C 210.58 475.96 212.82 473.72 212.82 470.96 L 212.82 445.87 C 212.82 443.11 210.58 440.87 207.82 440.87 L 185.36 440.87 C 182.6 440.87 180.36 443.11 180.36 445.87 Z "/></g><g style="fill: rgb(233,149,150); fill-opacity: 1.0; stroke: none" transform="matrix(1,0,0,1,-0,-60)" ><path d="M 213.82 445.87 L 213.82 470.96 C 213.82 473.72 216.06 475.96 218.82 475.96 L 241.27 475.96 C 244.03 475.96 246.27 473.72 246.27 470.96 L 246.27 445.87 C 246.27 443.11 244.03 440.87 241.27 440.87 L 218.82 440.87 C 216.06 440.87 213.82 443.11 213.82 445.87 Z "/></g><g style="stroke-width: 1.0;stroke: rgb(255,255,255);stroke-opacity: 1.0;stroke-linecap: round;stroke-linejoin: round;; fill: none" transform="matrix(1,0,0,1,-0,-60)" ><path d="M 213.82 445.87 L 213.82 470.96 C 213.82 473.72 216.06 475.96 218.82 475.96 L 241.27 475.96 C 244.03 475.96 246.27 473.72 246.27 470.96 L 246.27 445.87 C 246.27 443.11 244.03 440.87 241.27 440.87 L 218.82 440.87 C 216.06 440.87 213.82 443.11 213.82 445.87 Z "/></g><g transform="matrix(1,0,0,1,-0,-60)"><text x="252.27" y="104.61" style="fill: rgb(0,0,0); fill-opacity: 1.0; font-family: Arial; font-size: 14px;" >Glyma.05G138600.1</text></g><g transform="matrix(1,0,0,1,-0,-60)"><text x="252.27" y="140.7" style="fill: rgb(0,0,0); fill-opacity: 1.0; font-family: Arial; font-size: 14px;" >Glyma.19G152900.1</text></g><g transform="matrix(1,0,0,1,-0,-60)"><text x="252.27" y="176.79" style="fill: rgb(0,0,0); fill-opacity: 1.0; font-family: Arial; font-size: 14px;" >Glyma.08G186500.1</text></g><g transform="matrix(1,0,0,1,-0,-60)"><text x="252.27" y="212.87" style="fill: rgb(0,0,0); fill-opacity: 1.0; font-family: Arial; font-size: 14px;" >Glyma.17G220300.1</text></g><g transform="matrix(1,0,0,1,-0,-60)"><text x="252.27" y="248.96" style="fill: rgb(0,0,0); fill-opacity: 1.0; font-family: Arial; font-size: 14px;" >Glyma.14G106000.1</text></g><g transform="matrix(1,0,0,1,-0,-60)"><text x="252.27" y="285.05" style="fill: rgb(0,0,0); fill-opacity: 1.0; font-family: Arial; font-size: 14px;" >Glyma.02G149900.1</text></g><g transform="matrix(1,0,0,1,-0,-60)"><text x="252.27" y="321.13" style="fill: rgb(0,0,0); fill-opacity: 1.0; font-family: Arial; font-size: 14px;" >Glyma.03G149900.1</text></g><g transform="matrix(1,0,0,1,-0,-60)"><text x="252.27" y="357.22" style="fill: rgb(0,0,0); fill-opacity: 1.0; font-family: Arial; font-size: 14px;" >Glyma.08G093800.1</text></g><g transform="matrix(1,0,0,1,-0,-60)"><text x="252.27" y="393.31" style="fill: rgb(0,0,0); fill-opacity: 1.0; font-family: Arial; font-size: 14px;" >Glyma.10G023900.1</text></g><g transform="matrix(1,0,0,1,-0,-60)"><text x="252.27" y="429.39" style="fill: rgb(0,0,0); fill-opacity: 1.0; font-family: Arial; font-size: 14px;" >Glyma.07G175300.1</text></g><g transform="matrix(1,0,0,1,-0,-60)"><text x="252.27" y="465.48" style="fill: rgb(0,0,0); fill-opacity: 1.0; font-family: Arial; font-size: 14px;" >Glyma.20G012100.1</text></g><g transform="matrix(0.707107,-0.707107,0.707107,0.707107,-351.266401,195.763216)"><text x="96.73" y="486.96" style="fill: rgb(0,0,0); fill-opacity: 1.0; font-family: Arial; font-size: 14px;" >Salt stress</text></g><g transform="matrix(0.707107,-0.707107,0.707107,0.707107,-346.34684,226.686583)"><text x="130.18" y="486.96" style="fill: rgb(0,0,0); fill-opacity: 1.0; font-family: Arial; font-size: 14px;" >Dehydration</text></g><g transform="matrix(0.707107,-0.707107,0.707107,0.707107,-334.833487,246.079405)"><text x="163.64" y="486.96" style="fill: rgb(0,0,0); fill-opacity: 1.0; font-family: Arial; font-size: 14px;" >Heat stress</text></g><g transform="matrix(0.707107,-0.707107,0.707107,0.707107,-333.316868,278.165891)"><text x="197.09" y="486.96" style="fill: rgb(0,0,0); fill-opacity: 1.0; font-family: Arial; font-size: 14px;" >Water deficit</text></g><g transform="matrix(0.707107,-0.707107,0.707107,0.707107,-340.674413,321.526352)"><text x="230.55" y="486.96" style="fill: rgb(0,0,0); fill-opacity: 1.0; font-family: Arial; font-size: 14px;" >Combined (W&amp;H)</text></g><rect x="415" y="100" width="18" height="1.5" style="fill: rgb(223,0,0); fill-opacity: 1.0" transform="matrix(1,0,0,1,-0,-60)" /><rect x="415" y="100" width="18" height="1.5" style="stroke-width: 1.0;stroke: rgb(223,0,0);stroke-opacity: 1.0;stroke-linecap: square;; fill: none" transform="matrix(1,0,0,1,-0,-60)" /><rect x="415" y="101.5" width="18" height="1.5" style="fill: rgb(224,0,0); fill-opacity: 1.0" transform="matrix(1,0,0,1,-0,-60)" /><rect x="415" y="101.5" width="18" height="1.5" style="stroke-width: 1.0;stroke: rgb(224,0,0);stroke-opacity: 1.0;stroke-linecap: square;; fill: none" transform="matrix(1,0,0,1,-0,-60)" /><rect x="415" y="103" width="18" height="1.5" style="fill: rgb(224,0,0); fill-opacity: 1.0" transform="matrix(1,0,0,1,-0,-60)" /><rect x="415" y="103" width="18" height="1.5" style="stroke-width: 1.0;stroke: rgb(224,0,0);stroke-opacity: 1.0;stroke-linecap: square;; fill: none" transform="matrix(1,0,0,1,-0,-60)" /><rect x="415" y="104.5" width="18" height="1.5" style="fill: rgb(224,0,0); fill-opacity: 1.0" transform="matrix(1,0,0,1,-0,-60)" /><rect x="415" y="104.5" width="18" height="1.5" style="stroke-width: 1.0;stroke: rgb(224,0,0);stroke-opacity: 1.0;stroke-linecap: square;; fill: none" transform="matrix(1,0,0,1,-0,-60)" /><rect x="415" y="106" width="18" height="1.5" style="fill: rgb(224,0,0); fill-opacity: 1.0" transform="matrix(1,0,0,1,-0,-60)" /><rect x="415" y="106" width="18" height="1.5" style="stroke-width: 1.0;stroke: rgb(224,0,0);stroke-opacity: 1.0;stroke-linecap: square;; fill: none" transform="matrix(1,0,0,1,-0,-60)" /><rect x="415" y="107.5" width="18" height="1.5" style="fill: rgb(225,0,0); fill-opacity: 1.0" transform="matrix(1,0,0,1,-0,-60)" /><rect x="415" y="107.5" width="18" height="1.5" style="stroke-width: 1.0;stroke: rgb(225,0,0);stroke-opacity: 1.0;stroke-linecap: square;; fill: none" transform="matrix(1,0,0,1,-0,-60)" /><rect x="415" y="109" width="18" height="1.5" style="fill: rgb(225,0,0); fill-opacity: 1.0" transform="matrix(1,0,0,1,-0,-60)" /><rect x="415" y="109" width="18" height="1.5" style="stroke-width: 1.0;stroke: rgb(225,0,0);stroke-opacity: 1.0;stroke-linecap: square;; fill: none" transform="matrix(1,0,0,1,-0,-60)" /><rect x="415" y="110.5" width="18" height="1.5" style="fill: rgb(225,0,2); fill-opacity: 1.0" transform="matrix(1,0,0,1,-0,-60)" /><rect x="415" y="110.5" width="18" height="1.5" style="stroke-width: 1.0;stroke: rgb(225,0,2);stroke-opacity: 1.0;stroke-linecap: square;; fill: none" transform="matrix(1,0,0,1,-0,-60)" /><rect x="415" y="112" width="18" height="1.5" style="fill: rgb(225,5,7); fill-opacity: 1.0" transform="matrix(1,0,0,1,-0,-60)" /><rect x="415" y="112" width="18" height="1.5" style="stroke-width: 1.0;stroke: rgb(225,5,7);stroke-opacity: 1.0;stroke-linecap: square;; fill: none" transform="matrix(1,0,0,1,-0,-60)" /><rect x="415" y="113.5" width="18" height="1.5" style="fill: rgb(226,10,13); fill-opacity: 1.0" transform="matrix(1,0,0,1,-0,-60)" /><rect x="415" y="113.5" width="18" height="1.5" style="stroke-width: 1.0;stroke: rgb(226,10,13);stroke-opacity: 1.0;stroke-linecap: square;; fill: none" transform="matrix(1,0,0,1,-0,-60)" /><rect x="415" y="115" width="18" height="1.5" style="fill: rgb(226,16,18); fill-opacity: 1.0" transform="matrix(1,0,0,1,-0,-60)" /><rect x="415" y="115" width="18" height="1.5" style="stroke-width: 1.0;stroke: rgb(226,16,18);stroke-opacity: 1.0;stroke-linecap: square;; fill: none" transform="matrix(1,0,0,1,-0,-60)" /><rect x="415" y="116.5" width="18" height="1.5" style="fill: rgb(226,21,23); fill-opacity: 1.0" transform="matrix(1,0,0,1,-0,-60)" /><rect x="415" y="116.5" width="18" height="1.5" style="stroke-width: 1.0;stroke: rgb(226,21,23);stroke-opacity: 1.0;stroke-linecap: square;; fill: none" transform="matrix(1,0,0,1,-0,-60)" /><rect x="415" y="118" width="18" height="1.5" style="fill: rgb(227,26,28); fill-opacity: 1.0" transform="matrix(1,0,0,1,-0,-60)" /><rect x="415" y="118" width="18" height="1.5" style="stroke-width: 1.0;stroke: rgb(227,26,28);stroke-opacity: 1.0;stroke-linecap: square;; fill: none" transform="matrix(1,0,0,1,-0,-60)" /><rect x="415" y="119.5" width="18" height="1.5" style="fill: rgb(227,32,34); fill-opacity: 1.0" transform="matrix(1,0,0,1,-0,-60)" /><rect x="415" y="119.5" width="18" height="1.5" style="stroke-width: 1.0;stroke: rgb(227,32,34);stroke-opacity: 1.0;stroke-linecap: square;; fill: none" transform="matrix(1,0,0,1,-0,-60)" /><rect x="415" y="121" width="18" height="1.5" style="fill: rgb(227,37,39); fill-opacity: 1.0" transform="matrix(1,0,0,1,-0,-60)" /><rect x="415" y="121" width="18" height="1.5" style="stroke-width: 1.0;stroke: rgb(227,37,39);stroke-opacity: 1.0;stroke-linecap: square;; fill: none" transform="matrix(1,0,0,1,-0,-60)" /><rect x="415" y="122.5" width="18" height="1.5" style="fill: rgb(227,42,44); fill-opacity: 1.0" transform="matrix(1,0,0,1,-0,-60)" /><rect x="415" y="122.5" width="18" height="1.5" style="stroke-width: 1.0;stroke: rgb(227,42,44);stroke-opacity: 1.0;stroke-linecap: square;; fill: none" transform="matrix(1,0,0,1,-0,-60)" /><rect x="415" y="124" width="18" height="1.5" style="fill: rgb(228,48,49); fill-opacity: 1.0" transform="matrix(1,0,0,1,-0,-60)" /><rect x="415" y="124" width="18" height="1.5" style="stroke-width: 1.0;stroke: rgb(228,48,49);stroke-opacity: 1.0;stroke-linecap: square;; fill: none" transform="matrix(1,0,0,1,-0,-60)" /><rect x="415" y="125.5" width="18" height="1.5" style="fill: rgb(228,53,55); fill-opacity: 1.0" transform="matrix(1,0,0,1,-0,-60)" /><rect x="415" y="125.5" width="18" height="1.5" style="stroke-width: 1.0;stroke: rgb(228,53,55);stroke-opacity: 1.0;stroke-linecap: square;; fill: none" transform="matrix(1,0,0,1,-0,-60)" /><rect x="415" y="127" width="18" height="1.5" style="fill: rgb(228,58,60); fill-opacity: 1.0" transform="matrix(1,0,0,1,-0,-60)" /><rect x="415" y="127" width="18" height="1.5" style="stroke-width: 1.0;stroke: rgb(228,58,60);stroke-opacity: 1.0;stroke-linecap: square;; fill: none" transform="matrix(1,0,0,1,-0,-60)" /><rect x="415" y="128.5" width="18" height="1.5" style="fill: rgb(228,64,65); fill-opacity: 1.0" transform="matrix(1,0,0,1,-0,-60)" /><rect x="415" y="128.5" width="18" height="1.5" style="stroke-width: 1.0;stroke: rgb(228,64,65);stroke-opacity: 1.0;stroke-linecap: square;; fill: none" transform="matrix(1,0,0,1,-0,-60)" /><rect x="415" y="130" width="18" height="1.5" style="fill: rgb(229,69,71); fill-opacity: 1.0" transform="matrix(1,0,0,1,-0,-60)" /><rect x="415" y="130" width="18" height="1.5" style="stroke-width: 1.0;stroke: rgb(229,69,71);stroke-opacity: 1.0;stroke-linecap: square;; fill: none" transform="matrix(1,0,0,1,-0,-60)" /><rect x="415" y="131.5" width="18" height="1.5" style="fill: rgb(229,74,76); fill-opacity: 1.0" transform="matrix(1,0,0,1,-0,-60)" /><rect x="415" y="131.5" width="18" height="1.5" style="stroke-width: 1.0;stroke: rgb(229,74,76);stroke-opacity: 1.0;stroke-linecap: square;; fill: none" transform="matrix(1,0,0,1,-0,-60)" /><rect x="415" y="133" width="18" height="1.5" style="fill: rgb(229,80,81); fill-opacity: 1.0" transform="matrix(1,0,0,1,-0,-60)" /><rect x="415" y="133" width="18" height="1.5" style="stroke-width: 1.0;stroke: rgb(229,80,81);stroke-opacity: 1.0;stroke-linecap: square;; fill: none" transform="matrix(1,0,0,1,-0,-60)" /><rect x="415" y="134.5" width="18" height="1.5" style="fill: rgb(230,85,86); fill-opacity: 1.0" transform="matrix(1,0,0,1,-0,-60)" /><rect x="415" y="134.5" width="18" height="1.5" style="stroke-width: 1.0;stroke: rgb(230,85,86);stroke-opacity: 1.0;stroke-linecap: square;; fill: none" transform="matrix(1,0,0,1,-0,-60)" /><rect x="415" y="136" width="18" height="1.5" style="fill: rgb(230,90,92); fill-opacity: 1.0" transform="matrix(1,0,0,1,-0,-60)" /><rect x="415" y="136" width="18" height="1.5" style="stroke-width: 1.0;stroke: rgb(230,90,92);stroke-opacity: 1.0;stroke-linecap: square;; fill: none" transform="matrix(1,0,0,1,-0,-60)" /><rect x="415" y="137.5" width="18" height="1.5" style="fill: rgb(230,96,97); fill-opacity: 1.0" transform="matrix(1,0,0,1,-0,-60)" /><rect x="415" y="137.5" width="18" height="1.5" style="stroke-width: 1.0;stroke: rgb(230,96,97);stroke-opacity: 1.0;stroke-linecap: square;; fill: none" transform="matrix(1,0,0,1,-0,-60)" /><rect x="415" y="139" width="18" height="1.5" style="fill: rgb(230,101,102); fill-opacity: 1.0" transform="matrix(1,0,0,1,-0,-60)" /><rect x="415" y="139" width="18" height="1.5" style="stroke-width: 1.0;stroke: rgb(230,101,102);stroke-opacity: 1.0;stroke-linecap: square;; fill: none" transform="matrix(1,0,0,1,-0,-60)" /><rect x="415" y="140.5" width="18" height="1.5" style="fill: rgb(231,106,108); fill-opacity: 1.0" transform="matrix(1,0,0,1,-0,-60)" /><rect x="415" y="140.5" width="18" height="1.5" style="stroke-width: 1.0;stroke: rgb(231,106,108);stroke-opacity: 1.0;stroke-linecap: square;; fill: none" transform="matrix(1,0,0,1,-0,-60)" /><rect x="415" y="142" width="18" height="1.5" style="fill: rgb(231,112,113); fill-opacity: 1.0" transform="matrix(1,0,0,1,-0,-60)" /><rect x="415" y="142" width="18" height="1.5" style="stroke-width: 1.0;stroke: rgb(231,112,113);stroke-opacity: 1.0;stroke-linecap: square;; fill: none" transform="matrix(1,0,0,1,-0,-60)" /><rect x="415" y="143.5" width="18" height="1.5" style="fill: rgb(231,117,118); fill-opacity: 1.0" transform="matrix(1,0,0,1,-0,-60)" /><rect x="415" y="143.5" width="18" height="1.5" style="stroke-width: 1.0;stroke: rgb(231,117,118);stroke-opacity: 1.0;stroke-linecap: square;; fill: none" transform="matrix(1,0,0,1,-0,-60)" /><rect x="415" y="145" width="18" height="1.5" style="fill: rgb(232,122,123); fill-opacity: 1.0" transform="matrix(1,0,0,1,-0,-60)" /><rect x="415" y="145" width="18" height="1.5" style="stroke-width: 1.0;stroke: rgb(232,122,123);stroke-opacity: 1.0;stroke-linecap: square;; fill: none" transform="matrix(1,0,0,1,-0,-60)" /><rect x="415" y="146.5" width="18" height="1.5" style="fill: rgb(232,128,129); fill-opacity: 1.0" transform="matrix(1,0,0,1,-0,-60)" /><rect x="415" y="146.5" width="18" height="1.5" style="stroke-width: 1.0;stroke: rgb(232,128,129);stroke-opacity: 1.0;stroke-linecap: square;; fill: none" transform="matrix(1,0,0,1,-0,-60)" /><rect x="415" y="148" width="18" height="1.5" style="fill: rgb(232,133,134); fill-opacity: 1.0" transform="matrix(1,0,0,1,-0,-60)" /><rect x="415" y="148" width="18" height="1.5" style="stroke-width: 1.0;stroke: rgb(232,133,134);stroke-opacity: 1.0;stroke-linecap: square;; fill: none" transform="matrix(1,0,0,1,-0,-60)" /><rect x="415" y="149.5" width="18" height="1.5" style="fill: rgb(232,138,139); fill-opacity: 1.0" transform="matrix(1,0,0,1,-0,-60)" /><rect x="415" y="149.5" width="18" height="1.5" style="stroke-width: 1.0;stroke: rgb(232,138,139);stroke-opacity: 1.0;stroke-linecap: square;; fill: none" transform="matrix(1,0,0,1,-0,-60)" /><rect x="415" y="151" width="18" height="1.5" style="fill: rgb(233,144,144); fill-opacity: 1.0" transform="matrix(1,0,0,1,-0,-60)" /><rect x="415" y="151" width="18" height="1.5" style="stroke-width: 1.0;stroke: rgb(233,144,144);stroke-opacity: 1.0;stroke-linecap: square;; fill: none" transform="matrix(1,0,0,1,-0,-60)" /><rect x="415" y="152.5" width="18" height="1.5" style="fill: rgb(233,149,150); fill-opacity: 1.0" transform="matrix(1,0,0,1,-0,-60)" /><rect x="415" y="152.5" width="18" height="1.5" style="stroke-width: 1.0;stroke: rgb(233,149,150);stroke-opacity: 1.0;stroke-linecap: square;; fill: none" transform="matrix(1,0,0,1,-0,-60)" /><rect x="415" y="154" width="18" height="1.5" style="fill: rgb(233,154,155); fill-opacity: 1.0" transform="matrix(1,0,0,1,-0,-60)" /><rect x="415" y="154" width="18" height="1.5" style="stroke-width: 1.0;stroke: rgb(233,154,155);stroke-opacity: 1.0;stroke-linecap: square;; fill: none" transform="matrix(1,0,0,1,-0,-60)" /><rect x="415" y="155.5" width="18" height="1.5" style="fill: rgb(233,160,160); fill-opacity: 1.0" transform="matrix(1,0,0,1,-0,-60)" /><rect x="415" y="155.5" width="18" height="1.5" style="stroke-width: 1.0;stroke: rgb(233,160,160);stroke-opacity: 1.0;stroke-linecap: square;; fill: none" transform="matrix(1,0,0,1,-0,-60)" /><rect x="415" y="157" width="18" height="1.5" style="fill: rgb(234,165,166); fill-opacity: 1.0" transform="matrix(1,0,0,1,-0,-60)" /><rect x="415" y="157" width="18" height="1.5" style="stroke-width: 1.0;stroke: rgb(234,165,166);stroke-opacity: 1.0;stroke-linecap: square;; fill: none" transform="matrix(1,0,0,1,-0,-60)" /><rect x="415" y="158.5" width="18" height="1.5" style="fill: rgb(234,170,171); fill-opacity: 1.0" transform="matrix(1,0,0,1,-0,-60)" /><rect x="415" y="158.5" width="18" height="1.5" style="stroke-width: 1.0;stroke: rgb(234,170,171);stroke-opacity: 1.0;stroke-linecap: square;; fill: none" transform="matrix(1,0,0,1,-0,-60)" /><rect x="415" y="160" width="18" height="1.5" style="fill: rgb(234,176,176); fill-opacity: 1.0" transform="matrix(1,0,0,1,-0,-60)" /><rect x="415" y="160" width="18" height="1.5" style="stroke-width: 1.0;stroke: rgb(234,176,176);stroke-opacity: 1.0;stroke-linecap: square;; fill: none" transform="matrix(1,0,0,1,-0,-60)" /><rect x="415" y="161.5" width="18" height="1.5" style="fill: rgb(235,181,181); fill-opacity: 1.0" transform="matrix(1,0,0,1,-0,-60)" /><rect x="415" y="161.5" width="18" height="1.5" style="stroke-width: 1.0;stroke: rgb(235,181,181);stroke-opacity: 1.0;stroke-linecap: square;; fill: none" transform="matrix(1,0,0,1,-0,-60)" /><rect x="415" y="163" width="18" height="1.5" style="fill: rgb(235,186,187); fill-opacity: 1.0" transform="matrix(1,0,0,1,-0,-60)" /><rect x="415" y="163" width="18" height="1.5" style="stroke-width: 1.0;stroke: rgb(235,186,187);stroke-opacity: 1.0;stroke-linecap: square;; fill: none" transform="matrix(1,0,0,1,-0,-60)" /><rect x="415" y="164.5" width="18" height="1.5" style="fill: rgb(235,192,192); fill-opacity: 1.0" transform="matrix(1,0,0,1,-0,-60)" /><rect x="415" y="164.5" width="18" height="1.5" style="stroke-width: 1.0;stroke: rgb(235,192,192);stroke-opacity: 1.0;stroke-linecap: square;; fill: none" transform="matrix(1,0,0,1,-0,-60)" /><rect x="415" y="166" width="18" height="1.5" style="fill: rgb(235,197,197); fill-opacity: 1.0" transform="matrix(1,0,0,1,-0,-60)" /><rect x="415" y="166" width="18" height="1.5" style="stroke-width: 1.0;stroke: rgb(235,197,197);stroke-opacity: 1.0;stroke-linecap: square;; fill: none" transform="matrix(1,0,0,1,-0,-60)" /><rect x="415" y="167.5" width="18" height="1.5" style="fill: rgb(236,202,203); fill-opacity: 1.0" transform="matrix(1,0,0,1,-0,-60)" /><rect x="415" y="167.5" width="18" height="1.5" style="stroke-width: 1.0;stroke: rgb(236,202,203);stroke-opacity: 1.0;stroke-linecap: square;; fill: none" transform="matrix(1,0,0,1,-0,-60)" /><rect x="415" y="169" width="18" height="1.5" style="fill: rgb(236,208,208); fill-opacity: 1.0" transform="matrix(1,0,0,1,-0,-60)" /><rect x="415" y="169" width="18" height="1.5" style="stroke-width: 1.0;stroke: rgb(236,208,208);stroke-opacity: 1.0;stroke-linecap: square;; fill: none" transform="matrix(1,0,0,1,-0,-60)" /><rect x="415" y="170.5" width="18" height="1.5" style="fill: rgb(236,213,213); fill-opacity: 1.0" transform="matrix(1,0,0,1,-0,-60)" /><rect x="415" y="170.5" width="18" height="1.5" style="stroke-width: 1.0;stroke: rgb(236,213,213);stroke-opacity: 1.0;stroke-linecap: square;; fill: none" transform="matrix(1,0,0,1,-0,-60)" /><rect x="415" y="172" width="18" height="1.5" style="fill: rgb(236,218,218); fill-opacity: 1.0" transform="matrix(1,0,0,1,-0,-60)" /><rect x="415" y="172" width="18" height="1.5" style="stroke-width: 1.0;stroke: rgb(236,218,218);stroke-opacity: 1.0;stroke-linecap: square;; fill: none" transform="matrix(1,0,0,1,-0,-60)" /><rect x="415" y="173.5" width="18" height="1.5" style="fill: rgb(237,224,224); fill-opacity: 1.0" transform="matrix(1,0,0,1,-0,-60)" /><rect x="415" y="173.5" width="18" height="1.5" style="stroke-width: 1.0;stroke: rgb(237,224,224);stroke-opacity: 1.0;stroke-linecap: square;; fill: none" transform="matrix(1,0,0,1,-0,-60)" /><rect x="415" y="175" width="18" height="1.5" style="fill: rgb(237,229,229); fill-opacity: 1.0" transform="matrix(1,0,0,1,-0,-60)" /><rect x="415" y="175" width="18" height="1.5" style="stroke-width: 1.0;stroke: rgb(237,229,229);stroke-opacity: 1.0;stroke-linecap: square;; fill: none" transform="matrix(1,0,0,1,-0,-60)" /><rect x="415" y="176.5" width="18" height="1.5" style="fill: rgb(237,234,234); fill-opacity: 1.0" transform="matrix(1,0,0,1,-0,-60)" /><rect x="415" y="176.5" width="18" height="1.5" style="stroke-width: 1.0;stroke: rgb(237,234,234);stroke-opacity: 1.0;stroke-linecap: square;; fill: none" transform="matrix(1,0,0,1,-0,-60)" /><rect x="415" y="178" width="18" height="1.5" style="fill: rgb(236,236,237); fill-opacity: 1.0" transform="matrix(1,0,0,1,-0,-60)" /><rect x="415" y="178" width="18" height="1.5" style="stroke-width: 1.0;stroke: rgb(236,236,237);stroke-opacity: 1.0;stroke-linecap: square;; fill: none" transform="matrix(1,0,0,1,-0,-60)" /><rect x="415" y="179.5" width="18" height="1.5" style="fill: rgb(230,233,235); fill-opacity: 1.0" transform="matrix(1,0,0,1,-0,-60)" /><rect x="415" y="179.5" width="18" height="1.5" style="stroke-width: 1.0;stroke: rgb(230,233,235);stroke-opacity: 1.0;stroke-linecap: square;; fill: none" transform="matrix(1,0,0,1,-0,-60)" /><rect x="415" y="181" width="18" height="1.5" style="fill: rgb(225,230,234); fill-opacity: 1.0" transform="matrix(1,0,0,1,-0,-60)" /><rect x="415" y="181" width="18" height="1.5" style="stroke-width: 1.0;stroke: rgb(225,230,234);stroke-opacity: 1.0;stroke-linecap: square;; fill: none" transform="matrix(1,0,0,1,-0,-60)" /><rect x="415" y="182.5" width="18" height="1.5" style="fill: rgb(220,227,233); fill-opacity: 1.0" transform="matrix(1,0,0,1,-0,-60)" /><rect x="415" y="182.5" width="18" height="1.5" style="stroke-width: 1.0;stroke: rgb(220,227,233);stroke-opacity: 1.0;stroke-linecap: square;; fill: none" transform="matrix(1,0,0,1,-0,-60)" /><rect x="415" y="184" width="18" height="1.5" style="fill: rgb(215,225,231); fill-opacity: 1.0" transform="matrix(1,0,0,1,-0,-60)" /><rect x="415" y="184" width="18" height="1.5" style="stroke-width: 1.0;stroke: rgb(215,225,231);stroke-opacity: 1.0;stroke-linecap: square;; fill: none" transform="matrix(1,0,0,1,-0,-60)" /><rect x="415" y="185.5" width="18" height="1.5" style="fill: rgb(210,222,230); fill-opacity: 1.0" transform="matrix(1,0,0,1,-0,-60)" /><rect x="415" y="185.5" width="18" height="1.5" style="stroke-width: 1.0;stroke: rgb(210,222,230);stroke-opacity: 1.0;stroke-linecap: square;; fill: none" transform="matrix(1,0,0,1,-0,-60)" /><rect x="415" y="187" width="18" height="1.5" style="fill: rgb(204,219,228); fill-opacity: 1.0" transform="matrix(1,0,0,1,-0,-60)" /><rect x="415" y="187" width="18" height="1.5" style="stroke-width: 1.0;stroke: rgb(204,219,228);stroke-opacity: 1.0;stroke-linecap: square;; fill: none" transform="matrix(1,0,0,1,-0,-60)" /><rect x="415" y="188.5" width="18" height="1.5" style="fill: rgb(199,216,227); fill-opacity: 1.0" transform="matrix(1,0,0,1,-0,-60)" /><rect x="415" y="188.5" width="18" height="1.5" style="stroke-width: 1.0;stroke: rgb(199,216,227);stroke-opacity: 1.0;stroke-linecap: square;; fill: none" transform="matrix(1,0,0,1,-0,-60)" /><rect x="415" y="190" width="18" height="1.5" style="fill: rgb(194,213,225); fill-opacity: 1.0" transform="matrix(1,0,0,1,-0,-60)" /><rect x="415" y="190" width="18" height="1.5" style="stroke-width: 1.0;stroke: rgb(194,213,225);stroke-opacity: 1.0;stroke-linecap: square;; fill: none" transform="matrix(1,0,0,1,-0,-60)" /><rect x="415" y="191.5" width="18" height="1.5" style="fill: rgb(189,210,224); fill-opacity: 1.0" transform="matrix(1,0,0,1,-0,-60)" /><rect x="415" y="191.5" width="18" height="1.5" style="stroke-width: 1.0;stroke: rgb(189,210,224);stroke-opacity: 1.0;stroke-linecap: square;; fill: none" transform="matrix(1,0,0,1,-0,-60)" /><rect x="415" y="193" width="18" height="1.5" style="fill: rgb(183,207,222); fill-opacity: 1.0" transform="matrix(1,0,0,1,-0,-60)" /><rect x="415" y="193" width="18" height="1.5" style="stroke-width: 1.0;stroke: rgb(183,207,222);stroke-opacity: 1.0;stroke-linecap: square;; fill: none" transform="matrix(1,0,0,1,-0,-60)" /><rect x="415" y="194.5" width="18" height="1.5" style="fill: rgb(178,204,221); fill-opacity: 1.0" transform="matrix(1,0,0,1,-0,-60)" /><rect x="415" y="194.5" width="18" height="1.5" style="stroke-width: 1.0;stroke: rgb(178,204,221);stroke-opacity: 1.0;stroke-linecap: square;; fill: none" transform="matrix(1,0,0,1,-0,-60)" /><rect x="415" y="196" width="18" height="1.5" style="fill: rgb(173,201,219); fill-opacity: 1.0" transform="matrix(1,0,0,1,-0,-60)" /><rect x="415" y="196" width="18" height="1.5" style="stroke-width: 1.0;stroke: rgb(173,201,219);stroke-opacity: 1.0;stroke-linecap: square;; fill: none" transform="matrix(1,0,0,1,-0,-60)" /><rect x="415" y="197.5" width="18" height="1.5" style="fill: rgb(168,198,218); fill-opacity: 1.0" transform="matrix(1,0,0,1,-0,-60)" /><rect x="415" y="197.5" width="18" height="1.5" style="stroke-width: 1.0;stroke: rgb(168,198,218);stroke-opacity: 1.0;stroke-linecap: square;; fill: none" transform="matrix(1,0,0,1,-0,-60)" /><rect x="415" y="199" width="18" height="1.5" style="fill: rgb(163,195,217); fill-opacity: 1.0" transform="matrix(1,0,0,1,-0,-60)" /><rect x="415" y="199" width="18" height="1.5" style="stroke-width: 1.0;stroke: rgb(163,195,217);stroke-opacity: 1.0;stroke-linecap: square;; fill: none" transform="matrix(1,0,0,1,-0,-60)" /><rect x="415" y="200.5" width="18" height="1.5" style="fill: rgb(157,192,215); fill-opacity: 1.0" transform="matrix(1,0,0,1,-0,-60)" /><rect x="415" y="200.5" width="18" height="1.5" style="stroke-width: 1.0;stroke: rgb(157,192,215);stroke-opacity: 1.0;stroke-linecap: square;; fill: none" transform="matrix(1,0,0,1,-0,-60)" /><rect x="415" y="202" width="18" height="1.5" style="fill: rgb(152,189,214); fill-opacity: 1.0" transform="matrix(1,0,0,1,-0,-60)" /><rect x="415" y="202" width="18" height="1.5" style="stroke-width: 1.0;stroke: rgb(152,189,214);stroke-opacity: 1.0;stroke-linecap: square;; fill: none" transform="matrix(1,0,0,1,-0,-60)" /><rect x="415" y="203.5" width="18" height="1.5" style="fill: rgb(147,186,212); fill-opacity: 1.0" transform="matrix(1,0,0,1,-0,-60)" /><rect x="415" y="203.5" width="18" height="1.5" style="stroke-width: 1.0;stroke: rgb(147,186,212);stroke-opacity: 1.0;stroke-linecap: square;; fill: none" transform="matrix(1,0,0,1,-0,-60)" /><rect x="415" y="205" width="18" height="1.5" style="fill: rgb(142,183,211); fill-opacity: 1.0" transform="matrix(1,0,0,1,-0,-60)" /><rect x="415" y="205" width="18" height="1.5" style="stroke-width: 1.0;stroke: rgb(142,183,211);stroke-opacity: 1.0;stroke-linecap: square;; fill: none" transform="matrix(1,0,0,1,-0,-60)" /><rect x="415" y="206.5" width="18" height="1.5" style="fill: rgb(137,180,209); fill-opacity: 1.0" transform="matrix(1,0,0,1,-0,-60)" /><rect x="415" y="206.5" width="18" height="1.5" style="stroke-width: 1.0;stroke: rgb(137,180,209);stroke-opacity: 1.0;stroke-linecap: square;; fill: none" transform="matrix(1,0,0,1,-0,-60)" /><rect x="415" y="208" width="18" height="1.5" style="fill: rgb(131,177,208); fill-opacity: 1.0" transform="matrix(1,0,0,1,-0,-60)" /><rect x="415" y="208" width="18" height="1.5" style="stroke-width: 1.0;stroke: rgb(131,177,208);stroke-opacity: 1.0;stroke-linecap: square;; fill: none" transform="matrix(1,0,0,1,-0,-60)" /><rect x="415" y="209.5" width="18" height="1.5" style="fill: rgb(126,174,206); fill-opacity: 1.0" transform="matrix(1,0,0,1,-0,-60)" /><rect x="415" y="209.5" width="18" height="1.5" style="stroke-width: 1.0;stroke: rgb(126,174,206);stroke-opacity: 1.0;stroke-linecap: square;; fill: none" transform="matrix(1,0,0,1,-0,-60)" /><rect x="415" y="211" width="18" height="1.5" style="fill: rgb(121,171,205); fill-opacity: 1.0" transform="matrix(1,0,0,1,-0,-60)" /><rect x="415" y="211" width="18" height="1.5" style="stroke-width: 1.0;stroke: rgb(121,171,205);stroke-opacity: 1.0;stroke-linecap: square;; fill: none" transform="matrix(1,0,0,1,-0,-60)" /><rect x="415" y="212.5" width="18" height="1.5" style="fill: rgb(116,168,203); fill-opacity: 1.0" transform="matrix(1,0,0,1,-0,-60)" /><rect x="415" y="212.5" width="18" height="1.5" style="stroke-width: 1.0;stroke: rgb(116,168,203);stroke-opacity: 1.0;stroke-linecap: square;; fill: none" transform="matrix(1,0,0,1,-0,-60)" /><rect x="415" y="214" width="18" height="1.5" style="fill: rgb(111,165,202); fill-opacity: 1.0" transform="matrix(1,0,0,1,-0,-60)" /><rect x="415" y="214" width="18" height="1.5" style="stroke-width: 1.0;stroke: rgb(111,165,202);stroke-opacity: 1.0;stroke-linecap: square;; fill: none" transform="matrix(1,0,0,1,-0,-60)" /><rect x="415" y="215.5" width="18" height="1.5" style="fill: rgb(105,162,201); fill-opacity: 1.0" transform="matrix(1,0,0,1,-0,-60)" /><rect x="415" y="215.5" width="18" height="1.5" style="stroke-width: 1.0;stroke: rgb(105,162,201);stroke-opacity: 1.0;stroke-linecap: square;; fill: none" transform="matrix(1,0,0,1,-0,-60)" /><rect x="415" y="217" width="18" height="1.5" style="fill: rgb(100,159,199); fill-opacity: 1.0" transform="matrix(1,0,0,1,-0,-60)" /><rect x="415" y="217" width="18" height="1.5" style="stroke-width: 1.0;stroke: rgb(100,159,199);stroke-opacity: 1.0;stroke-linecap: square;; fill: none" transform="matrix(1,0,0,1,-0,-60)" /><rect x="415" y="218.5" width="18" height="1.5" style="fill: rgb(95,156,198); fill-opacity: 1.0" transform="matrix(1,0,0,1,-0,-60)" /><rect x="415" y="218.5" width="18" height="1.5" style="stroke-width: 1.0;stroke: rgb(95,156,198);stroke-opacity: 1.0;stroke-linecap: square;; fill: none" transform="matrix(1,0,0,1,-0,-60)" /><rect x="415" y="220" width="18" height="1.5" style="fill: rgb(90,153,196); fill-opacity: 1.0" transform="matrix(1,0,0,1,-0,-60)" /><rect x="415" y="220" width="18" height="1.5" style="stroke-width: 1.0;stroke: rgb(90,153,196);stroke-opacity: 1.0;stroke-linecap: square;; fill: none" transform="matrix(1,0,0,1,-0,-60)" /><rect x="415" y="221.5" width="18" height="1.5" style="fill: rgb(85,150,195); fill-opacity: 1.0" transform="matrix(1,0,0,1,-0,-60)" /><rect x="415" y="221.5" width="18" height="1.5" style="stroke-width: 1.0;stroke: rgb(85,150,195);stroke-opacity: 1.0;stroke-linecap: square;; fill: none" transform="matrix(1,0,0,1,-0,-60)" /><rect x="415" y="223" width="18" height="1.5" style="fill: rgb(79,147,193); fill-opacity: 1.0" transform="matrix(1,0,0,1,-0,-60)" /><rect x="415" y="223" width="18" height="1.5" style="stroke-width: 1.0;stroke: rgb(79,147,193);stroke-opacity: 1.0;stroke-linecap: square;; fill: none" transform="matrix(1,0,0,1,-0,-60)" /><rect x="415" y="224.5" width="18" height="1.5" style="fill: rgb(74,144,192); fill-opacity: 1.0" transform="matrix(1,0,0,1,-0,-60)" /><rect x="415" y="224.5" width="18" height="1.5" style="stroke-width: 1.0;stroke: rgb(74,144,192);stroke-opacity: 1.0;stroke-linecap: square;; fill: none" transform="matrix(1,0,0,1,-0,-60)" /><rect x="415" y="226" width="18" height="1.5" style="fill: rgb(69,141,190); fill-opacity: 1.0" transform="matrix(1,0,0,1,-0,-60)" /><rect x="415" y="226" width="18" height="1.5" style="stroke-width: 1.0;stroke: rgb(69,141,190);stroke-opacity: 1.0;stroke-linecap: square;; fill: none" transform="matrix(1,0,0,1,-0,-60)" /><rect x="415" y="227.5" width="18" height="1.5" style="fill: rgb(64,138,189); fill-opacity: 1.0" transform="matrix(1,0,0,1,-0,-60)" /><rect x="415" y="227.5" width="18" height="1.5" style="stroke-width: 1.0;stroke: rgb(64,138,189);stroke-opacity: 1.0;stroke-linecap: square;; fill: none" transform="matrix(1,0,0,1,-0,-60)" /><rect x="415" y="229" width="18" height="1.5" style="fill: rgb(59,136,187); fill-opacity: 1.0" transform="matrix(1,0,0,1,-0,-60)" /><rect x="415" y="229" width="18" height="1.5" style="stroke-width: 1.0;stroke: rgb(59,136,187);stroke-opacity: 1.0;stroke-linecap: square;; fill: none" transform="matrix(1,0,0,1,-0,-60)" /><rect x="415" y="230.5" width="18" height="1.5" style="fill: rgb(53,133,186); fill-opacity: 1.0" transform="matrix(1,0,0,1,-0,-60)" /><rect x="415" y="230.5" width="18" height="1.5" style="stroke-width: 1.0;stroke: rgb(53,133,186);stroke-opacity: 1.0;stroke-linecap: square;; fill: none" transform="matrix(1,0,0,1,-0,-60)" /><rect x="415" y="232" width="18" height="1.5" style="fill: rgb(48,130,184); fill-opacity: 1.0" transform="matrix(1,0,0,1,-0,-60)" /><rect x="415" y="232" width="18" height="1.5" style="stroke-width: 1.0;stroke: rgb(48,130,184);stroke-opacity: 1.0;stroke-linecap: square;; fill: none" transform="matrix(1,0,0,1,-0,-60)" /><rect x="415" y="233.5" width="18" height="1.5" style="fill: rgb(43,127,183); fill-opacity: 1.0" transform="matrix(1,0,0,1,-0,-60)" /><rect x="415" y="233.5" width="18" height="1.5" style="stroke-width: 1.0;stroke: rgb(43,127,183);stroke-opacity: 1.0;stroke-linecap: square;; fill: none" transform="matrix(1,0,0,1,-0,-60)" /><rect x="415" y="235" width="18" height="1.5" style="fill: rgb(38,124,182); fill-opacity: 1.0" transform="matrix(1,0,0,1,-0,-60)" /><rect x="415" y="235" width="18" height="1.5" style="stroke-width: 1.0;stroke: rgb(38,124,182);stroke-opacity: 1.0;stroke-linecap: square;; fill: none" transform="matrix(1,0,0,1,-0,-60)" /><rect x="415" y="236.5" width="18" height="1.5" style="fill: rgb(33,121,180); fill-opacity: 1.0" transform="matrix(1,0,0,1,-0,-60)" /><rect x="415" y="236.5" width="18" height="1.5" style="stroke-width: 1.0;stroke: rgb(33,121,180);stroke-opacity: 1.0;stroke-linecap: square;; fill: none" transform="matrix(1,0,0,1,-0,-60)" /><rect x="415" y="238" width="18" height="1.5" style="fill: rgb(27,118,179); fill-opacity: 1.0" transform="matrix(1,0,0,1,-0,-60)" /><rect x="415" y="238" width="18" height="1.5" style="stroke-width: 1.0;stroke: rgb(27,118,179);stroke-opacity: 1.0;stroke-linecap: square;; fill: none" transform="matrix(1,0,0,1,-0,-60)" /><rect x="415" y="239.5" width="18" height="1.5" style="fill: rgb(22,115,177); fill-opacity: 1.0" transform="matrix(1,0,0,1,-0,-60)" /><rect x="415" y="239.5" width="18" height="1.5" style="stroke-width: 1.0;stroke: rgb(22,115,177);stroke-opacity: 1.0;stroke-linecap: square;; fill: none" transform="matrix(1,0,0,1,-0,-60)" /><rect x="415" y="241" width="18" height="1.5" style="fill: rgb(17,112,176); fill-opacity: 1.0" transform="matrix(1,0,0,1,-0,-60)" /><rect x="415" y="241" width="18" height="1.5" style="stroke-width: 1.0;stroke: rgb(17,112,176);stroke-opacity: 1.0;stroke-linecap: square;; fill: none" transform="matrix(1,0,0,1,-0,-60)" /><rect x="415" y="242.5" width="18" height="1.5" style="fill: rgb(12,109,174); fill-opacity: 1.0" transform="matrix(1,0,0,1,-0,-60)" /><rect x="415" y="242.5" width="18" height="1.5" style="stroke-width: 1.0;stroke: rgb(12,109,174);stroke-opacity: 1.0;stroke-linecap: square;; fill: none" transform="matrix(1,0,0,1,-0,-60)" /><rect x="415" y="244" width="18" height="1.5" style="fill: rgb(7,106,173); fill-opacity: 1.0" transform="matrix(1,0,0,1,-0,-60)" /><rect x="415" y="244" width="18" height="1.5" style="stroke-width: 1.0;stroke: rgb(7,106,173);stroke-opacity: 1.0;stroke-linecap: square;; fill: none" transform="matrix(1,0,0,1,-0,-60)" /><rect x="415" y="245.5" width="18" height="1.5" style="fill: rgb(1,103,171); fill-opacity: 1.0" transform="matrix(1,0,0,1,-0,-60)" /><rect x="415" y="245.5" width="18" height="1.5" style="stroke-width: 1.0;stroke: rgb(1,103,171);stroke-opacity: 1.0;stroke-linecap: square;; fill: none" transform="matrix(1,0,0,1,-0,-60)" /><rect x="415" y="247" width="18" height="1.5" style="fill: rgb(0,100,170); fill-opacity: 1.0" transform="matrix(1,0,0,1,-0,-60)" /><rect x="415" y="247" width="18" height="1.5" style="stroke-width: 1.0;stroke: rgb(0,100,170);stroke-opacity: 1.0;stroke-linecap: square;; fill: none" transform="matrix(1,0,0,1,-0,-60)" /><rect x="415" y="248.5" width="18" height="1.5" style="fill: rgb(0,97,168); fill-opacity: 1.0" transform="matrix(1,0,0,1,-0,-60)" /><rect x="415" y="248.5" width="18" height="1.5" style="stroke-width: 1.0;stroke: rgb(0,97,168);stroke-opacity: 1.0;stroke-linecap: square;; fill: none" transform="matrix(1,0,0,1,-0,-60)" /><line x1="433.9" y1="100" x2="433.9" y2="250" style="stroke-width: 1.0;stroke: rgb(0,0,0);stroke-opacity: 1.0;stroke-linecap: round;stroke-linejoin: round;" transform="matrix(1,0,0,1,-0,-60)" /><line x1="433.9" y1="250" x2="436.9" y2="250" style="stroke-width: 1.0;stroke: rgb(0,0,0);stroke-opacity: 1.0;stroke-linecap: round;stroke-linejoin: round;" transform="matrix(1,0,0,1,-0,-60)" /><g transform="matrix(1,0,0,1,-0,-60)"><text x="439" y="254.39" style="fill: rgb(0,0,0); fill-opacity: 1.0; font-family: Arial; font-size: 12px;" >-0.60</text></g><line x1="433.9" y1="231.25" x2="436.9" y2="231.25" style="stroke-width: 1.0;stroke: rgb(0,0,0);stroke-opacity: 1.0;stroke-linecap: round;stroke-linejoin: round;" transform="matrix(1,0,0,1,-0,-60)" /><g transform="matrix(1,0,0,1,-0,-60)"><text x="439" y="235.64" style="fill: rgb(0,0,0); fill-opacity: 1.0; font-family: Arial; font-size: 12px;" >-0.50</text></g><line x1="433.9" y1="212.5" x2="436.9" y2="212.5" style="stroke-width: 1.0;stroke: rgb(0,0,0);stroke-opacity: 1.0;stroke-linecap: round;stroke-linejoin: round;" transform="matrix(1,0,0,1,-0,-60)" /><g transform="matrix(1,0,0,1,-0,-60)"><text x="439" y="216.89" style="fill: rgb(0,0,0); fill-opacity: 1.0; font-family: Arial; font-size: 12px;" >-0.40</text></g><line x1="433.9" y1="193.75" x2="436.9" y2="193.75" style="stroke-width: 1.0;stroke: rgb(0,0,0);stroke-opacity: 1.0;stroke-linecap: round;stroke-linejoin: round;" transform="matrix(1,0,0,1,-0,-60)" /><g transform="matrix(1,0,0,1,-0,-60)"><text x="439" y="198.14" style="fill: rgb(0,0,0); fill-opacity: 1.0; font-family: Arial; font-size: 12px;" >-0.30</text></g><line x1="433.9" y1="175" x2="436.9" y2="175" style="stroke-width: 1.0;stroke: rgb(0,0,0);stroke-opacity: 1.0;stroke-linecap: round;stroke-linejoin: round;" transform="matrix(1,0,0,1,-0,-60)" /><g transform="matrix(1,0,0,1,-0,-60)"><text x="439" y="179.39" style="fill: rgb(0,0,0); fill-opacity: 1.0; font-family: Arial; font-size: 12px;" >-0.20</text></g><line x1="433.9" y1="156.25" x2="436.9" y2="156.25" style="stroke-width: 1.0;stroke: rgb(0,0,0);stroke-opacity: 1.0;stroke-linecap: round;stroke-linejoin: round;" transform="matrix(1,0,0,1,-0,-60)" /><g transform="matrix(1,0,0,1,-0,-60)"><text x="439" y="160.64" style="fill: rgb(0,0,0); fill-opacity: 1.0; font-family: Arial; font-size: 12px;" >-0.10</text></g><line x1="433.9" y1="137.5" x2="436.9" y2="137.5" style="stroke-width: 1.0;stroke: rgb(0,0,0);stroke-opacity: 1.0;stroke-linecap: round;stroke-linejoin: round;" transform="matrix(1,0,0,1,-0,-60)" /><g transform="matrix(1,0,0,1,-0,-60)"><text x="439" y="141.89" style="fill: rgb(0,0,0); fill-opacity: 1.0; font-family: Arial; font-size: 12px;" >-0.00</text></g><line x1="433.9" y1="118.75" x2="436.9" y2="118.75" style="stroke-width: 1.0;stroke: rgb(0,0,0);stroke-opacity: 1.0;stroke-linecap: round;stroke-linejoin: round;" transform="matrix(1,0,0,1,-0,-60)" /><g transform="matrix(1,0,0,1,-0,-60)"><text x="439" y="123.14" style="fill: rgb(0,0,0); fill-opacity: 1.0; font-family: Arial; font-size: 12px;" >0.10</text></g><line x1="433.9" y1="100" x2="436.9" y2="100" style="stroke-width: 1.0;stroke: rgb(0,0,0);stroke-opacity: 1.0;stroke-linecap: round;stroke-linejoin: round;" transform="matrix(1,0,0,1,-0,-60)" /><g transform="matrix(1,0,0,1,-0,-60)"><text x="439" y="104.39" style="fill: rgb(0,0,0); fill-opacity: 1.0; font-family: Arial; font-size: 12px;" >0.20</text></g></svg>
